<?xml version="1.0" encoding="UTF-8" standalone="no"?>
<!-- Created with Inkscape (http://www.inkscape.org/) -->

<svg
   width="364.68195mm"
   height="84.282043mm"
   viewBox="0 0 364.68196 84.282044"
   version="1.1"
   id="svg5"
   xmlns="http://www.w3.org/2000/svg"
   xmlns:svg="http://www.w3.org/2000/svg">
  <defs
     id="defs2">
    <rect
       x="120.29773"
       y="-298.55554"
       width="673.66681"
       height="242.76697"
       id="rect33060" />
  </defs>
  <g
     id="layer3"
     style="display:inline"
     transform="translate(7.5000025)">
    <g
       id="rect1007-7">
      <path
         style="color:#000000;fill:#000000;stroke-width:2.99542;-inkscape-stroke:none"
         d="M 7.8731818,1.4977124 H 341.80876 c 7.68701,0 13.87547,6.1884605 13.87547,13.8754716 v 53.535677 c 0,7.687012 -6.18846,13.875472 -13.87547,13.875472 H 7.8731818 c -7.68701151,0 -13.875472,-6.18846 -13.875472,-13.875472 V 15.373184 c 0,-7.6870111 6.18846049,-13.8754716 13.875472,-13.8754716 z"
         id="path870" />
      <path
         style="color:#000000;fill:#4d4d4d;-inkscape-stroke:none"
         d="M 7.8730469,0 C -0.61778126,0 -7.5,6.8822187 -7.5,15.373047 v 53.535156 c 0,8.490828 6.88221874,15.373047 15.3730469,15.373047 H 341.80859 c 8.49083,0 15.37305,-6.882219 15.37305,-15.373047 V 15.373047 C 357.18164,6.8822187 350.29942,0 341.80859,0 Z m 0,2.9960938 H 341.80859 c 6.88318,0 12.37696,5.4937735 12.37696,12.3769532 v 53.535156 c 0,6.88318 -5.49378,12.378906 -12.37696,12.378906 H 7.8730469 c -6.88317957,0 -12.3769531,-5.495726 -12.3769531,-12.378906 V 15.373047 c 0,-6.8831797 5.49377353,-12.3769532 12.3769531,-12.3769532 z"
         id="path872" />
    </g>
  </g>
  <g
     id="g883"
     style="display:inline"
     transform="translate(0.59457302,-5.2300978)">
    <path
       id="path875"
       style="display:inline;fill:#ffffff;stroke-width:0.30286"
       d="M 44.405427,73.351875 29.40543,64.691622 14.405426,64.691619 44.405427,82.01213 72.781628,65.629122 49.818084,25.855097 l -4.330127,7.5 17.04848,29.528834 z" />
    <path
       id="path877"
       style="display:inline;fill:#ffffff;stroke-width:0.314589"
       d="m 44.405427,12.730097 -30,17.320508 4e-6,32.766017 h 45.927082 l -4.330127,-7.5 H 21.905427 v -20.93589 l 14.999998,-8.660253 z" />
    <path
       d="m 46.029224,13.667596 28.376203,16.383009 -10e-7,34.641017 -7.499999,-12.99038 V 34.380732 L 48.774414,23.912787 31.725933,53.441622 l -8.660252,2e-6 z"
       fill="#000000"
       id="path879"
       style="display:inline;fill:#ffffff;stroke-width:0.306641" />
    <path
       style="fill:#c00000;fill-opacity:1;stroke:none;stroke-width:0.521353px;stroke-linecap:butt;stroke-linejoin:miter;stroke-opacity:1"
       d="m 38.221124,45.941622 h 12.368603 l 4.330127,7.5 -21.028855,2e-6 z"
       id="path881" />
  </g>
  <g
     id="g873"
     style="display:inline"
     transform="translate(0.59457302,-5.2300978)">
    <g
       aria-label="CAMTOOLS"
       transform="matrix(1.0474863,0,0,1.0254275,1.7278651,15.617076)"
       id="g871"
       style="font-weight:bold;font-size:49.3889px;line-height:1.25;font-family:'League Spartan';-inkscape-font-specification:'League Spartan, Bold';letter-spacing:0.55755px;word-spacing:0px;display:inline;stroke-width:0.670314">
      <path
         d="m 94.573977,50.125086 q 2.271889,0 4.123973,-0.66675 1.87678,-0.666751 2.79047,-1.308806 l 3.16089,6.27239 q -1.16064,0.987778 -3.9758,2.000251 -2.790477,1.012472 -6.642811,1.012472 -3.60539,0 -6.76628,-1.259417 -3.160889,-1.259417 -5.580945,-3.531306 -2.395362,-2.296584 -3.778251,-5.358696 -1.358195,-3.086806 -1.358195,-6.692196 0,-3.60539 1.358195,-6.692196 1.358195,-3.111501 3.753556,-5.408085 2.420056,-2.296584 5.580946,-3.556001 3.185584,-1.284111 6.790974,-1.284111 3.852334,0 6.642811,1.012472 2.81516,1.012473 3.9758,2.000251 l -3.16089,6.27239 q -0.91369,-0.66675 -2.79047,-1.308806 -1.852084,-0.66675 -4.123973,-0.66675 -2.518834,0 -4.395612,0.790223 -1.876779,0.765528 -3.136196,2.123722 -1.259417,1.358195 -1.876778,3.062112 -0.617361,1.703917 -0.617361,3.580695 0,1.901473 0.617361,3.630085 0.617361,1.703917 1.876778,3.062112 1.259417,1.358194 3.136196,2.148417 1.876778,0.765528 4.395612,0.765528 z"
         id="path855"
         style="fill:#ffffff" />
      <path
         d="m 120.27042,24.245302 h 7.33425 l 12.86581,32.596674 h -7.87753 l -8.59367,-23.706672 h -0.0741 l -8.64304,23.706672 h -7.90222 z"
         id="path857"
         style="fill:#c00000;fill-opacity:1" />
      <path
         d="m 178.3413,24.245302 v 32.596674 h -7.35895 l -0.0247,-21.027383 -6.39589,18.409771 h -7.23547 l -6.37117,-18.421593 v 21.039205 h -7.38364 V 24.245302 h 10.37167 l 7.01322,23.316638 7.01323,-23.316638 z"
         id="path859"
         style="fill:#ffffff" />
      <path
         d="m 190.85089,30.715248 h -7.77875 v -6.469946 h 22.91645 v 6.469946 h -7.75406 v 26.126728 h -7.38364 z"
         id="path861"
         style="fill:#ffffff" />
      <path
         d="m 215.90519,40.518944 q 0,2.790473 1.13595,5.062363 1.16064,2.247195 3.18558,3.580695 2.04964,1.3335 4.74134,1.3335 2.69169,0 4.71664,-1.3335 2.04963,-1.3335 3.18558,-3.580695 1.16064,-2.27189 1.16064,-5.062363 0,-2.790472 -1.16064,-5.037667 -1.13595,-2.247195 -3.18558,-3.580696 -2.02495,-1.358194 -4.71664,-1.358194 -2.6917,0 -4.74134,1.358194 -2.02494,1.333501 -3.18558,3.580696 -1.13595,2.247195 -1.13595,5.037667 z m -7.67997,0 q 0,-3.556 1.25942,-6.618112 1.25941,-3.086807 3.5313,-5.38339 2.27189,-2.296584 5.334,-3.580696 3.06211,-1.284111 6.61812,-1.284111 3.60539,0 6.6428,1.284111 3.06211,1.284112 5.30931,3.580696 2.27189,2.296583 3.50661,5.38339 1.25942,3.062112 1.25942,6.618112 0,3.580696 -1.21003,6.667502 -1.21003,3.062112 -3.45722,5.38339 -2.2472,2.296584 -5.30931,3.580696 -3.06211,1.284111 -6.74158,1.284111 -3.75356,0 -6.84037,-1.284111 -3.06211,-1.284112 -5.28461,-3.580696 -2.2225,-2.321278 -3.43253,-5.38339 -1.18533,-3.086806 -1.18533,-6.667502 z"
         id="path863"
         style="fill:#ffffff" />
      <path
         d="m 253.10923,40.518944 q 0,2.790473 1.13595,5.062363 1.16064,2.247195 3.18558,3.580695 2.04964,1.3335 4.74134,1.3335 2.69169,0 4.71664,-1.3335 2.04964,-1.3335 3.18558,-3.580695 1.16064,-2.27189 1.16064,-5.062363 0,-2.790472 -1.16064,-5.037667 -1.13594,-2.247195 -3.18558,-3.580696 -2.02495,-1.358194 -4.71664,-1.358194 -2.6917,0 -4.74134,1.358194 -2.02494,1.333501 -3.18558,3.580696 -1.13595,2.247195 -1.13595,5.037667 z m -7.67997,0 q 0,-3.556 1.25942,-6.618112 1.25941,-3.086807 3.5313,-5.38339 2.27189,-2.296584 5.334,-3.580696 3.06212,-1.284111 6.61812,-1.284111 3.60539,0 6.6428,1.284111 3.06212,1.284112 5.30931,3.580696 2.27189,2.296583 3.50661,5.38339 1.25942,3.062112 1.25942,6.618112 0,3.580696 -1.21003,6.667502 -1.21003,3.062112 -3.45722,5.38339 -2.2472,2.296584 -5.30931,3.580696 -3.06211,1.284111 -6.74158,1.284111 -3.75356,0 -6.84037,-1.284111 -3.06211,-1.284112 -5.28461,-3.580696 -2.2225,-2.321278 -3.43253,-5.38339 -1.18533,-3.086806 -1.18533,-6.667502 z"
         id="path865"
         style="fill:#ffffff" />
      <path
         d="m 283.86804,24.245302 h 7.38364 V 50.37203 h 11.82864 v 6.469946 h -19.21228 z"
         id="path867"
         style="fill:#ffffff" />
      <path
         d="m 320.30661,23.652635 q 3.03742,0 5.30931,0.66675 2.27189,0.66675 3.65478,1.407584 1.38289,0.740833 1.67922,0.987778 l -3.556,5.951362 q -0.39511,-0.296333 -1.35819,-0.864306 -0.93839,-0.567972 -2.2472,-1.012472 -1.28411,-0.4445 -2.69169,-0.4445 -1.90148,0 -3.08681,0.691445 -1.16064,0.66675 -1.16064,2.00025 0,0.913695 0.61736,1.654528 0.64206,0.716139 1.92617,1.382889 1.30881,0.642056 3.30906,1.407584 1.82739,0.66675 3.43252,1.580445 1.60514,0.913695 2.81517,2.173112 1.23472,1.234722 1.95086,2.864556 0.71614,1.629833 0.71614,3.704167 0,2.469445 -1.01247,4.296835 -1.01247,1.802695 -2.76578,2.988028 -1.72861,1.185334 -3.95111,1.753306 -2.19781,0.592667 -4.56847,0.592667 -3.35845,0 -6.02545,-0.765528 -2.64231,-0.765528 -4.27214,-1.654528 -1.62983,-0.889 -1.95086,-1.185334 l 3.67947,-6.198307 q 0.29634,0.22225 1.13595,0.716139 0.8643,0.493889 2.09903,1.037167 1.23472,0.518584 2.61761,0.889 1.40758,0.370417 2.76578,0.370417 2.27188,0 3.40783,-0.864306 1.13594,-0.889 1.13594,-2.321278 0,-1.061861 -0.71613,-1.901473 -0.71614,-0.839611 -2.14842,-1.580444 -1.43228,-0.765528 -3.5807,-1.60514 -2.14841,-0.864306 -4.02519,-2.099028 -1.85209,-1.234723 -3.01273,-3.086806 -1.16063,-1.852084 -1.16063,-4.593168 0,-2.741084 1.53105,-4.741335 1.55575,-2.024945 4.07459,-3.1115 2.54352,-1.086556 5.43277,-1.086556 z"
         id="path869"
         style="fill:#ffffff" />
    </g>
    <g
       aria-label="Built with"
       id="text13477-9"
       style="font-size:21.1667px;-inkscape-font-specification:'League Spartan, Bold';letter-spacing:0.577844px;word-spacing:0px;fill:#ffffff;stroke-width:0.177354">
      <path
         d="m 83.780432,20.981951 h 4.445007 q 1.174752,0 2.190753,0.3175 1.016002,0.317501 1.640419,1.058335 0.635001,0.740835 0.635001,2.02142 0,0.857251 -0.328083,1.534586 -0.328084,0.677334 -0.836085,1.111252 -0.508001,0.423334 -1.068918,0.539751 0.47625,0.05292 0.973668,0.28575 0.497417,0.232834 0.920751,0.645584 0.423334,0.412751 0.677335,1.037169 0.264583,0.624417 0.264583,1.460502 0,1.164169 -0.508,2.063753 -0.497418,0.889002 -1.481669,1.397003 -0.973669,0.497417 -2.423588,0.497417 h -5.101174 z m 2.645837,11.832185 h 1.915586 q 0.804335,0 1.280586,-0.264584 0.486834,-0.264583 0.698501,-0.719667 0.211667,-0.455084 0.211667,-1.037169 0,-0.931334 -0.592668,-1.428752 -0.592667,-0.497417 -1.682752,-0.497417 h -1.83092 z m 0,-6.043093 h 1.682753 q 0.656167,0 1.079502,-0.254 0.433917,-0.264584 0.656167,-0.698501 0.222251,-0.444501 0.222251,-0.963085 0,-0.994835 -0.582085,-1.365252 -0.571501,-0.370418 -1.555752,-0.370418 h -1.502836 z"
         style="-inkscape-font-specification:'League Spartan, Semi-Bold'"
         id="path5328" />
      <path
         d="m 98.455293,30.422299 q 0,1.164169 0.465667,1.86267 0.465668,0.687917 1.50284,0.687917 1.04775,0 1.51342,-0.687917 0.46566,-0.698501 0.46566,-1.86267 v -4.159257 h 2.64584 v 4.466174 q 0,1.344086 -0.53975,2.360087 -0.53975,1.005419 -1.57692,1.566336 -1.02658,0.550334 -2.50825,0.550334 -1.471089,0 -2.508258,-0.550334 -1.026585,-0.560917 -1.566336,-1.566336 -0.53975,-1.016001 -0.53975,-2.360087 v -4.466174 h 2.645837 z"
         style="-inkscape-font-specification:'League Spartan, Semi-Bold'"
         id="path5330" />
      <path
         d="m 107.94429,34.951973 v -8.688931 h 2.67758 v 8.688931 z m 1.37583,-10.932601 q -0.66675,0 -1.13242,-0.465667 -0.45508,-0.465668 -0.45508,-1.111252 0,-0.645584 0.46567,-1.121835 0.46566,-0.476251 1.12183,-0.476251 0.43392,0 0.79375,0.222251 0.35984,0.211667 0.58209,0.5715 0.22225,0.359834 0.22225,0.804335 0,0.645584 -0.47625,1.111252 -0.46567,0.465667 -1.12184,0.465667 z"
         style="-inkscape-font-specification:'League Spartan, Semi-Bold'"
         id="path5332" />
      <path
         d="m 116.37494,34.951973 h -2.69875 v -14.56269 h 2.69875 z"
         style="-inkscape-font-specification:'League Spartan, Semi-Bold'"
         id="path5334" />
      <path
         d="m 118.49795,26.263042 h 1.56634 v -3.566589 h 2.667 v 3.566589 h 2.05317 v 2.233087 h -2.05317 v 3.143255 q 0,0.624418 0.20109,0.973669 0.20108,0.338667 0.635,0.338667 0.32808,0 0.53975,-0.127 0.21166,-0.137584 0.254,-0.190501 l 0.9525,1.92617 q -0.0635,0.0635 -0.41275,0.22225 -0.33867,0.158751 -0.87842,0.285751 -0.52917,0.137583 -1.19592,0.137583 -1.19592,0 -1.97908,-0.687917 -0.78317,-0.698502 -0.78317,-2.159004 v -3.862923 h -1.56634 z"
         style="-inkscape-font-specification:'League Spartan, Semi-Bold'"
         id="path5336" />
      <path
         d="m 139.62439,29.353381 -2.0955,5.598592 h -2.55059 l -2.67758,-8.688931 h 2.8575 l 1.4605,5.799676 2.06376,-5.630342 h 1.89442 l 2.04258,5.630342 1.47109,-5.799676 h 2.8575 l -2.667,8.688931 h -2.55059 z"
         style="-inkscape-font-specification:'League Spartan, Semi-Bold'"
         id="path5338" />
      <path
         d="m 148.93347,34.951973 v -8.688931 h 2.67759 v 8.688931 z m 1.37584,-10.932601 q -0.66675,0 -1.13242,-0.465667 -0.45508,-0.465668 -0.45508,-1.111252 0,-0.645584 0.46566,-1.121835 0.46567,-0.476251 1.12184,-0.476251 0.43392,0 0.79375,0.222251 0.35983,0.211667 0.58208,0.5715 0.22225,0.359834 0.22225,0.804335 0,0.645584 -0.47625,1.111252 -0.46566,0.465667 -1.12183,0.465667 z"
         style="-inkscape-font-specification:'League Spartan, Semi-Bold'"
         id="path5340" />
      <path
         d="m 153.90337,26.263042 h 1.56634 v -3.566589 h 2.667 v 3.566589 h 2.05317 v 2.233087 h -2.05317 v 3.143255 q 0,0.624418 0.20109,0.973669 0.20108,0.338667 0.635,0.338667 0.32808,0 0.53975,-0.127 0.21167,-0.137584 0.254,-0.190501 l 0.9525,1.92617 q -0.0635,0.0635 -0.41275,0.22225 -0.33867,0.158751 -0.87842,0.285751 -0.52917,0.137583 -1.19592,0.137583 -1.19591,0 -1.97908,-0.687917 -0.78317,-0.698502 -0.78317,-2.159004 v -3.862923 h -1.56634 z"
         style="-inkscape-font-specification:'League Spartan, Semi-Bold'"
         id="path5342" />
      <path
         d="m 168.27131,26.009042 q 0.88901,0 1.73567,0.370417 0.84667,0.359834 1.38642,1.153585 0.55034,0.793752 0.55034,2.074337 v 5.344592 h -2.69876 v -4.878924 q 0,-1.068919 -0.48683,-1.587503 -0.47625,-0.518584 -1.28059,-0.518584 -0.53975,0 -1.03717,0.296334 -0.48683,0.28575 -0.80433,0.804334 -0.30692,0.508001 -0.30692,1.164169 v 4.720174 h -2.69875 v -14.56269 h 2.69875 v 7.260178 q 0.10584,-0.359834 0.51859,-0.740834 0.41275,-0.381001 1.04775,-0.635001 0.635,-0.264584 1.37583,-0.264584 z"
         style="-inkscape-font-specification:'League Spartan, Semi-Bold'"
         id="path5344" />
    </g>
  </g>
</svg>
