<?xml version="1.0" encoding="UTF-8" standalone="no"?>
<!-- Created with Inkscape (http://www.inkscape.org/) -->

<svg
   width="364.68195mm"
   height="84.282043mm"
   viewBox="0 0 364.68196 84.282044"
   version="1.1"
   id="svg5"
   xmlns="http://www.w3.org/2000/svg"
   xmlns:svg="http://www.w3.org/2000/svg">
  <defs
     id="defs2">
    <rect
       x="120.29773"
       y="-298.55554"
       width="673.66681"
       height="242.76697"
       id="rect33060" />
  </defs>
  <g
     id="layer5"
     transform="translate(7.5000025)">
    <g
       id="rect1007">
      <path
         style="color:#000000;fill:#ffffff;stroke-width:2.99542;-inkscape-stroke:none"
         d="M 7.8731794,1.4977096 H 341.80876 c 7.68701,0 13.87547,6.1884606 13.87547,13.8754724 v 53.535677 c 0,7.687011 -6.18846,13.875472 -13.87547,13.875472 H 7.8731794 c -7.68701149,0 -13.875472,-6.188461 -13.875472,-13.875472 V 15.373182 c 0,-7.6870118 6.18846051,-13.8754724 13.875472,-13.8754724 z"
         id="path854" />
      <path
         style="color:#000000;fill:#000000;-inkscape-stroke:none"
         d="M 7.8730469,0 C -0.61778126,0 -7.5,6.8822187 -7.5,15.373047 v 53.535156 c 0,8.490828 6.88221874,15.373047 15.3730469,15.373047 H 341.80859 c 8.49083,0 15.37305,-6.882219 15.37305,-15.373047 V 15.373047 C 357.18164,6.8822187 350.29942,0 341.80859,0 Z m 0,2.9960938 H 341.80859 c 6.88318,0 12.37696,5.4937735 12.37696,12.3769532 v 53.535156 c 0,6.88318 -5.49378,12.378906 -12.37696,12.378906 H 7.8730469 c -6.88317957,0 -12.3769531,-5.495726 -12.3769531,-12.378906 V 15.373047 c 0,-6.8831797 5.49377353,-12.3769532 12.3769531,-12.3769532 z"
         id="path856" />
    </g>
  </g>
  <g
     id="layer1"
     style="display:inline"
     transform="translate(0.59457302,-5.2300978)">
    <path
       id="path325-9"
       style="display:inline;stroke-width:0.30286"
       d="m 44.405427,73.351874 -14.999997,-8.660253 -15.000004,-3e-6 30.000001,17.320511 28.376201,-16.383008 -22.963544,-39.774025 -4.330127,7.5 17.04848,29.528834 z" />
    <path
       id="path13625-4"
       style="display:inline;stroke-width:0.314589"
       d="m 44.405427,12.730097 -30,17.320507 4e-6,32.766017 h 45.927082 l -4.330127,-7.5 H 21.905427 v -20.93589 l 14.999998,-8.660253 z" />
    <path
       d="m 46.029224,13.667596 28.376203,16.383008 -10e-7,34.641017 -7.499999,-12.99038 V 34.380731 L 48.774414,23.912786 31.725933,53.441621 l -8.660252,3e-6 z"
       fill="#000000"
       id="path327-5"
       style="display:inline;stroke-width:0.306641" />
    <path
       style="fill:#c00000;fill-opacity:1;stroke:none;stroke-width:0.521353px;stroke-linecap:butt;stroke-linejoin:miter;stroke-opacity:1"
       d="m 38.221124,45.941621 h 12.368603 l 4.330127,7.5 H 33.890999 Z"
       id="path20745" />
  </g>
  <g
     id="layer4"
     style="display:inline"
     transform="translate(0.59457302,-5.2300978)">
    <g
       aria-label="CAMTOOLS"
       transform="matrix(1.0474863,0,0,1.0254275,1.727874,25.822896)"
       id="text38935-9"
       style="font-weight:bold;font-size:49.3889px;line-height:1.25;font-family:'League Spartan';-inkscape-font-specification:'League Spartan, Bold';letter-spacing:0.55755px;word-spacing:0px;display:inline;stroke-width:0.670314">
      <g
         id="g18579"
         transform="translate(-8.5446932e-6,-9.9527468)">
        <path
           d="m 94.573977,50.125086 q 2.271889,0 4.123973,-0.66675 1.87678,-0.666751 2.79047,-1.308806 l 3.16089,6.27239 q -1.16064,0.987778 -3.9758,2.000251 -2.790477,1.012472 -6.642811,1.012472 -3.60539,0 -6.76628,-1.259417 -3.160889,-1.259417 -5.580945,-3.531306 -2.395362,-2.296584 -3.778251,-5.358696 -1.358195,-3.086806 -1.358195,-6.692196 0,-3.60539 1.358195,-6.692196 1.358195,-3.111501 3.753556,-5.408085 2.420056,-2.296584 5.580946,-3.556001 3.185584,-1.284111 6.790974,-1.284111 3.852334,0 6.642811,1.012472 2.81516,1.012473 3.9758,2.000251 l -3.16089,6.27239 q -0.91369,-0.66675 -2.79047,-1.308806 -1.852084,-0.66675 -4.123973,-0.66675 -2.518834,0 -4.395612,0.790223 -1.876779,0.765528 -3.136196,2.123722 -1.259417,1.358195 -1.876778,3.062112 -0.617361,1.703917 -0.617361,3.580695 0,1.901473 0.617361,3.630085 0.617361,1.703917 1.876778,3.062112 1.259417,1.358194 3.136196,2.148417 1.876778,0.765528 4.395612,0.765528 z"
           id="path8299" />
        <path
           d="m 120.27042,24.245302 h 7.33425 l 12.86581,32.596674 h -7.87753 l -8.59367,-23.706672 h -0.0741 l -8.64304,23.706672 h -7.90222 z"
           id="path8301"
           style="fill:#c00000;fill-opacity:1" />
        <path
           d="m 178.3413,24.245302 v 32.596674 h -7.35895 l -0.0247,-21.027383 -6.39589,18.409771 h -7.23547 l -6.37117,-18.421593 v 21.039205 h -7.38364 V 24.245302 h 10.37167 l 7.01322,23.316638 7.01323,-23.316638 z"
           id="path8303" />
        <path
           d="m 190.85089,30.715248 h -7.77875 v -6.469946 h 22.91645 v 6.469946 h -7.75406 v 26.126728 h -7.38364 z"
           id="path8305" />
        <path
           d="m 215.90519,40.518944 q 0,2.790473 1.13595,5.062363 1.16064,2.247195 3.18558,3.580695 2.04964,1.3335 4.74134,1.3335 2.69169,0 4.71664,-1.3335 2.04963,-1.3335 3.18558,-3.580695 1.16064,-2.27189 1.16064,-5.062363 0,-2.790472 -1.16064,-5.037667 -1.13595,-2.247195 -3.18558,-3.580696 -2.02495,-1.358194 -4.71664,-1.358194 -2.6917,0 -4.74134,1.358194 -2.02494,1.333501 -3.18558,3.580696 -1.13595,2.247195 -1.13595,5.037667 z m -7.67997,0 q 0,-3.556 1.25942,-6.618112 1.25941,-3.086807 3.5313,-5.38339 2.27189,-2.296584 5.334,-3.580696 3.06211,-1.284111 6.61812,-1.284111 3.60539,0 6.6428,1.284111 3.06211,1.284112 5.30931,3.580696 2.27189,2.296583 3.50661,5.38339 1.25942,3.062112 1.25942,6.618112 0,3.580696 -1.21003,6.667502 -1.21003,3.062112 -3.45722,5.38339 -2.2472,2.296584 -5.30931,3.580696 -3.06211,1.284111 -6.74158,1.284111 -3.75356,0 -6.84037,-1.284111 -3.06211,-1.284112 -5.28461,-3.580696 -2.2225,-2.321278 -3.43253,-5.38339 -1.18533,-3.086806 -1.18533,-6.667502 z"
           id="path8307" />
        <path
           d="m 253.10923,40.518944 q 0,2.790473 1.13595,5.062363 1.16064,2.247195 3.18558,3.580695 2.04964,1.3335 4.74134,1.3335 2.69169,0 4.71664,-1.3335 2.04964,-1.3335 3.18558,-3.580695 1.16064,-2.27189 1.16064,-5.062363 0,-2.790472 -1.16064,-5.037667 -1.13594,-2.247195 -3.18558,-3.580696 -2.02495,-1.358194 -4.71664,-1.358194 -2.6917,0 -4.74134,1.358194 -2.02494,1.333501 -3.18558,3.580696 -1.13595,2.247195 -1.13595,5.037667 z m -7.67997,0 q 0,-3.556 1.25942,-6.618112 1.25941,-3.086807 3.5313,-5.38339 2.27189,-2.296584 5.334,-3.580696 3.06212,-1.284111 6.61812,-1.284111 3.60539,0 6.6428,1.284111 3.06212,1.284112 5.30931,3.580696 2.27189,2.296583 3.50661,5.38339 1.25942,3.062112 1.25942,6.618112 0,3.580696 -1.21003,6.667502 -1.21003,3.062112 -3.45722,5.38339 -2.2472,2.296584 -5.30931,3.580696 -3.06211,1.284111 -6.74158,1.284111 -3.75356,0 -6.84037,-1.284111 -3.06211,-1.284112 -5.28461,-3.580696 -2.2225,-2.321278 -3.43253,-5.38339 -1.18533,-3.086806 -1.18533,-6.667502 z"
           id="path8309" />
        <path
           d="m 283.86804,24.245302 h 7.38364 V 50.37203 h 11.82864 v 6.469946 h -19.21228 z"
           id="path8311" />
        <path
           d="m 320.30661,23.652635 q 3.03742,0 5.30931,0.66675 2.27189,0.66675 3.65478,1.407584 1.38289,0.740833 1.67922,0.987778 l -3.556,5.951362 q -0.39511,-0.296333 -1.35819,-0.864306 -0.93839,-0.567972 -2.2472,-1.012472 -1.28411,-0.4445 -2.69169,-0.4445 -1.90148,0 -3.08681,0.691445 -1.16064,0.66675 -1.16064,2.00025 0,0.913695 0.61736,1.654528 0.64206,0.716139 1.92617,1.382889 1.30881,0.642056 3.30906,1.407584 1.82739,0.66675 3.43252,1.580445 1.60514,0.913695 2.81517,2.173112 1.23472,1.234722 1.95086,2.864556 0.71614,1.629833 0.71614,3.704167 0,2.469445 -1.01247,4.296835 -1.01247,1.802695 -2.76578,2.988028 -1.72861,1.185334 -3.95111,1.753306 -2.19781,0.592667 -4.56847,0.592667 -3.35845,0 -6.02545,-0.765528 -2.64231,-0.765528 -4.27214,-1.654528 -1.62983,-0.889 -1.95086,-1.185334 l 3.67947,-6.198307 q 0.29634,0.22225 1.13595,0.716139 0.8643,0.493889 2.09903,1.037167 1.23472,0.518584 2.61761,0.889 1.40758,0.370417 2.76578,0.370417 2.27188,0 3.40783,-0.864306 1.13594,-0.889 1.13594,-2.321278 0,-1.061861 -0.71613,-1.901473 -0.71614,-0.839611 -2.14842,-1.580444 -1.43228,-0.765528 -3.5807,-1.60514 -2.14841,-0.864306 -4.02519,-2.099028 -1.85209,-1.234723 -3.01273,-3.086806 -1.16063,-1.852084 -1.16063,-4.593168 0,-2.741084 1.53105,-4.741335 1.55575,-2.024945 4.07459,-3.1115 2.54352,-1.086556 5.43277,-1.086556 z"
           id="path8313" />
      </g>
      <text
         xml:space="preserve"
         style="font-style:normal;font-weight:normal;font-size:10.2116px;line-height:1.25;font-family:sans-serif;fill:#000000;fill-opacity:1;stroke:none;stroke-width:0.171125"
         x="80.951553"
         y="3.4181433"
         id="text3919"
         transform="scale(0.98941456,1.0106987)"><tspan
           id="tspan3917"
           style="stroke-width:0.171125"
           x="80.951553"
           y="3.4181433" /></text>
      <g
         aria-label="Built with"
         transform="scale(0.98941456,1.0106987)"
         id="text13477"
         style="font-weight:normal;font-size:20.4233px;font-family:sans-serif;stroke-width:0.171125">
        <path
           d="m 79.170877,-4.6709148 h 4.288893 q 1.133493,0 2.113812,0.3063495 0.980318,0.3063495 1.582805,1.021165 0.612699,0.7148155 0.612699,1.9504252 0,0.82714359 -0.316561,1.48068919 -0.316561,0.65354559 -0.80672,1.07222321 -0.490159,0.408466 -1.031377,0.5207942 0.459525,0.051058 0.939472,0.2757145 0.479948,0.2246563 0.888414,0.6229107 0.408466,0.3982543 0.653545,1.0007417 0.255291,0.6024873 0.255291,1.4092076 0,1.1232815 -0.490159,1.9912718 -0.479947,0.8577786 -1.429631,1.3479378 -0.939472,0.4799475 -2.338468,0.4799475 H 79.170877 Z M 81.72379,6.7457098 h 1.848308 q 0.776086,0 1.23561,-0.2552912 0.469736,-0.2552913 0.673969,-0.6943922 0.204233,-0.439101 0.204233,-1.0007417 0,-0.8986252 -0.571853,-1.3785727 Q 84.542205,2.9367644 83.490405,2.9367644 H 81.72379 Z m 0,-5.83085207 h 1.623652 q 0.633122,0 1.041588,-0.2450796 0.418678,-0.25529125 0.633123,-0.67396889 0.214444,-0.4288893 0.214444,-0.92926014 0,-0.9598951 -0.561641,-1.3173028 -0.551429,-0.3574078 -1.501112,-0.3574078 H 81.72379 Z"
           style="-inkscape-font-specification:'League Spartan, Semi-Bold'"
           id="path5185" />
        <path
           d="m 93.330341,4.4378769 q 0,1.1232815 0.449312,1.7972504 0.449313,0.6637573 1.450055,0.6637573 1.010953,0 1.460266,-0.6637573 0.449312,-0.6739689 0.449312,-1.7972504 V 0.42469853 h 2.552913 V 4.7340148 q 0,1.2968795 -0.520794,2.2771979 -0.520795,0.9701068 -1.521536,1.5113242 -0.99053,0.5310058 -2.420161,0.5310058 -1.41942,0 -2.420161,-0.5310058 Q 91.819017,7.9813195 91.298222,7.0112127 90.777428,6.0308943 90.777428,4.7340148 V 0.42469853 h 2.552913 z"
           style="-inkscape-font-specification:'League Spartan, Semi-Bold'"
           id="path5187" />
        <path
           d="M 102.48607,8.8084631 V 0.42469853 h 2.58355 V 8.8084631 Z m 1.32751,-10.5486343 q -0.64333,0 -1.09264,-0.4493126 -0.4391,-0.4493126 -0.4391,-1.0722233 0,-0.6229106 0.44931,-1.0824349 0.44931,-0.4595242 1.08243,-0.4595242 0.41868,0 0.76588,0.2144446 0.34719,0.204233 0.56164,0.5514291 0.21444,0.3471961 0.21444,0.7760854 0,0.6229107 -0.45952,1.0722233 -0.44931,0.4493126 -1.08244,0.4493126 z"
           style="-inkscape-font-specification:'League Spartan, Semi-Bold'"
           id="path5189" />
        <path
           d="m 110.62063,8.8084631 h -2.60397 V -5.2427672 h 2.60397 z"
           style="-inkscape-font-specification:'League Spartan, Semi-Bold'"
           id="path5191" />
        <path
           d="m 112.66908,0.42469853 h 1.51132 V -3.0166275 h 2.57334 v 3.44132603 h 1.98106 V 2.5793567 h -1.98106 v 3.03286 q 0,0.6024873 0.19402,0.9394718 0.19402,0.3267728 0.6127,0.3267728 0.31656,0 0.52079,-0.1225398 0.20423,-0.1327515 0.24508,-0.1838097 l 0.91905,1.8585203 q -0.0613,0.06127 -0.39826,0.2144446 -0.32677,0.1531747 -0.84756,0.2757145 -0.51059,0.1327515 -1.15392,0.1327515 -1.15392,0 -1.90958,-0.6637572 Q 114.1804,7.7158166 114.1804,6.3066089 V 2.5793567 h -1.51132 z"
           style="-inkscape-font-specification:'League Spartan, Semi-Bold'"
           id="path5193" />
        <path
           d="m 133.05353,3.4065003 -2.0219,5.4019628 h -2.46101 l -2.58355,-8.38376457 h 2.75715 l 1.40921,5.59598417 1.99127,-5.43259777 h 1.82788 l 1.97085,5.43259777 1.41942,-5.59598417 H 140.12 l -2.57334,8.38376457 h -2.46101 z"
           style="-inkscape-font-specification:'League Spartan, Semi-Bold'"
           id="path5195" />
        <path
           d="M 142.03567,8.8084631 V 0.42469853 h 2.58354 V 8.8084631 Z m 1.32751,-10.5486343 q -0.64333,0 -1.09265,-0.4493126 -0.4391,-0.4493126 -0.4391,-1.0722233 0,-0.6229106 0.44932,-1.0824349 0.44931,-0.4595242 1.08243,-0.4595242 0.41868,0 0.76587,0.2144446 0.3472,0.204233 0.56165,0.5514291 0.21444,0.3471961 0.21444,0.7760854 0,0.6229107 -0.45952,1.0722233 -0.44932,0.4493126 -1.08244,0.4493126 z"
           style="-inkscape-font-specification:'League Spartan, Semi-Bold'"
           id="path5197" />
        <path
           d="m 146.83102,0.42469853 h 1.51132 V -3.0166275 h 2.57334 v 3.44132603 h 1.98106 V 2.5793567 h -1.98106 v 3.03286 q 0,0.6024873 0.19402,0.9394718 0.19402,0.3267728 0.6127,0.3267728 0.31656,0 0.52079,-0.1225398 0.20424,-0.1327515 0.24508,-0.1838097 l 0.91905,1.8585203 q -0.0613,0.06127 -0.39825,0.2144446 -0.32678,0.1531747 -0.84757,0.2757145 -0.51058,0.1327515 -1.15392,0.1327515 -1.15391,0 -1.90958,-0.6637572 -0.75566,-0.6739689 -0.75566,-2.0831766 V 2.5793567 h -1.51132 z"
           style="-inkscape-font-specification:'League Spartan, Semi-Bold'"
           id="path5199" />
        <path
           d="m 160.69435,0.17961894 q 0.85778,0 1.67471,0.35740774 0.81693,0.3471961 1.33772,1.11306982 0.53101,0.7658738 0.53101,2.0014834 v 5.1568832 h -2.60397 V 4.1008925 q 0,-1.0313766 -0.46974,-1.5317475 -0.45952,-0.5003708 -1.23561,-0.5003708 -0.52079,0 -1.00074,0.2859262 -0.46973,0.2757145 -0.77608,0.7760854 -0.29614,0.4901592 -0.29614,1.1232814 v 4.5543959 h -2.60397 V -5.2427672 h 2.60397 v 7.0051919 q 0.10211,-0.3471961 0.50037,-0.7148155 0.39825,-0.36761942 1.01095,-0.61269902 0.6127,-0.25529124 1.32752,-0.25529124 z"
           style="-inkscape-font-specification:'League Spartan, Semi-Bold'"
           id="path5201" />
      </g>
    </g>
  </g>
</svg>
