<svg version="1.1" viewBox="0.0 0.0 645.3333333333334 521.3333333333334" fill="none" stroke="none" stroke-linecap="square" stroke-miterlimit="10" xmlns:xlink="http://www.w3.org/1999/xlink" xmlns="http://www.w3.org/2000/svg"><clipPath id="p.0"><path d="m0 0l645.3333 0l0 521.3333l-645.3333 0l0 -521.3333z" clip-rule="nonzero"/></clipPath><g clip-path="url(#p.0)"><path fill="#000000" fill-opacity="0.0" d="m0 0l645.3333 0l0 521.3333l-645.3333 0z" fill-rule="evenodd"/><path fill="#000000" fill-opacity="0.0" d="m226.13911 265.41733l-28.56694 0" fill-rule="evenodd"/><path stroke="#000000" stroke-width="4.0" stroke-linejoin="round" stroke-linecap="butt" d="m226.13911 265.41733l-28.56694 0" fill-rule="evenodd"/><path fill="#000000" fill-opacity="0.0" d="m226.13911 514.7559l237.35432 -237.33774l0 -261.33945l-237.35432 237.33772z" fill-rule="evenodd"/><path stroke="#000000" stroke-width="4.0" stroke-linejoin="round" stroke-linecap="butt" d="m226.13911 514.7559l237.35432 -237.33774l0 -261.33945l-237.35432 237.33772z" fill-rule="evenodd"/><path fill="#000000" fill-opacity="0.0" d="m91.49344 265.75067l0 120.346436" fill-rule="evenodd"/><path stroke="#990000" stroke-width="4.0" stroke-linejoin="round" stroke-linecap="butt" d="m91.49344 265.75067l0 96.346436" fill-rule="evenodd"/><path fill="#990000" stroke="#990000" stroke-width="4.0" stroke-linecap="butt" d="m84.886505 362.0971l6.6069336 18.152405l6.606926 -18.152405z" fill-rule="evenodd"/><path fill="#000000" fill-opacity="0.0" d="m463.49344 16.062992l-97.51181 98.20473" fill-rule="evenodd"/><path stroke="#0b5394" stroke-width="4.0" stroke-linejoin="round" stroke-linecap="butt" d="m463.49344 16.062992l-80.60141 81.17418" fill-rule="evenodd"/><path fill="#0b5394" stroke="#0b5394" stroke-width="4.0" stroke-linecap="butt" d="m378.20367 92.58194l-8.101837 17.536278l17.478485 -8.2258z" fill-rule="evenodd"/><path fill="#000000" fill-opacity="0.0" d="m463.49344 16.071299l0 105.6693" fill-rule="evenodd"/><path stroke="#0b5394" stroke-width="4.0" stroke-linejoin="round" stroke-linecap="butt" d="m463.49344 16.071299l0 81.66929" fill-rule="evenodd"/><path fill="#0b5394" stroke="#0b5394" stroke-width="4.0" stroke-linecap="butt" d="m456.8865 97.740585l6.6069336 18.152397l6.6069336 -18.152397z" fill-rule="evenodd"/><path fill="#000000" fill-opacity="0.0" d="m344.86877 265.43307l255.1181 0" fill-rule="evenodd"/><path stroke="#000000" stroke-width="4.0" stroke-linejoin="round" stroke-linecap="butt" d="m344.86877 265.43307l255.1181 0" fill-rule="evenodd"/><path fill="#000000" fill-opacity="0.0" d="m91.49344 265.41733l118.645676 0" fill-rule="evenodd"/><path stroke="#990000" stroke-width="4.0" stroke-linejoin="round" stroke-linecap="butt" d="m91.49344 265.41733l94.645676 0" fill-rule="evenodd"/><path fill="#990000" stroke="#990000" stroke-width="4.0" stroke-linecap="butt" d="m186.13911 272.02426l18.15239 -6.6069336l-18.15239 -6.6069336z" fill-rule="evenodd"/><path fill="#000000" fill-opacity="0.0" d="m463.49344 146.7476l-118.677155 118.67717" fill-rule="evenodd"/><path stroke="#b45f06" stroke-width="4.0" stroke-linejoin="round" stroke-linecap="butt" d="m463.49344 146.7476l-118.677155 118.67717" fill-rule="evenodd"/><path fill="#000000" fill-opacity="0.0" d="m344.81628 134.74846l0 130.67717" fill-rule="evenodd"/><path stroke="#b45f06" stroke-width="4.0" stroke-linejoin="round" stroke-linecap="butt" d="m344.81628 134.74846l0 130.67717" fill-rule="evenodd"/><path fill="#990000" d="m85.61942 265.41733l0 0c0 -3.2441406 2.6298828 -5.8740234 5.874016 -5.8740234l0 0c1.5578842 0 3.0519638 0.61886597 4.153557 1.720459c1.101593 1.101593 1.720459 2.5956726 1.720459 4.1535645l0 0c0 3.24411 -2.6298904 5.8740234 -5.874016 5.8740234l0 0c-3.244133 0 -5.874016 -2.6299133 -5.874016 -5.8740234z" fill-rule="evenodd"/><path fill="#0b5394" d="m457.61942 17.417322l0 0c0 -3.2441282 2.6298828 -5.874015 5.8740234 -5.874015l0 0c1.5578918 0 3.0519714 0.6188679 4.1535645 1.720459c1.101593 1.1015921 1.720459 2.5956707 1.720459 4.153556l0 0c0 3.2441292 -2.6298828 5.874016 -5.8740234 5.874016l0 0c-3.2441406 0 -5.8740234 -2.6298866 -5.8740234 -5.874016z" fill-rule="evenodd"/><path fill="#000000" d="m338.94226 265.41733l0 0c0 -3.2441406 2.6298828 -5.8740234 5.8740234 -5.8740234l0 0c1.5578613 0 3.051941 0.61886597 4.153534 1.720459c1.101593 1.101593 1.720459 2.5956726 1.720459 4.1535645l0 0c0 3.24411 -2.6298828 5.8740234 -5.873993 5.8740234l0 0c-3.2441406 0 -5.8740234 -2.6299133 -5.8740234 -5.8740234z" fill-rule="evenodd"/><path fill="#000000" fill-opacity="0.0" d="m24.0 319.29135l36.0 0l0 51.716522l-36.0 0z" fill-rule="evenodd"/><path fill="#990000" d="m47.203125 332.89334l-0.296875 1.28125q-0.84375 0.078125 -1.21875 0.515625q-0.375 0.4375 -0.375 1.140625q0 0.59375 0.203125 1.40625q0.21875 0.8125 0.671875 1.9375l1.234375 3.25l2.609375 -3.25q1.25 -1.5625 1.734375 -2.34375q0.5 -0.796875 0.5 -1.328125q0 -0.65625 -0.34375 -0.9375q-0.328125 -0.296875 -1.09375 -0.390625l0.296875 -1.28125l8.125 0l-0.296875 1.296875q-0.34375 0.0625 -0.71875 0.25q-0.375 0.1875 -0.84375 0.59375q-0.46875 0.40625 -1.25 1.25q-0.78125 0.828125 -2.078125 2.359375l-5.609375 6.515625l3.453125 9.0q0.640625 1.703125 1.09375 2.484375q0.453125 0.78125 0.875 1.125q0.4375 0.328125 1.0625 0.484375l-0.28125 1.296875l-9.953125 0l0.265625 -1.296875q0.765625 -0.078125 1.15625 -0.421875q0.390625 -0.359375 0.390625 -0.984375q0 -0.703125 -0.171875 -1.421875q-0.171875 -0.71875 -0.515625 -1.59375l-1.734375 -4.59375l-4.046875 4.828125q-0.890625 1.0625 -1.265625 1.6875q-0.375 0.625 -0.375 1.234375q0 1.171875 1.453125 1.265625l-0.28125 1.296875l-8.140625 0l0.265625 -1.296875q0.46875 -0.109375 0.953125 -0.40625q0.484375 -0.296875 1.203125 -1.015625q0.71875 -0.71875 2.4375 -2.671875l6.75 -7.625l-3.0 -7.890625q-0.203125 -0.5625 -0.5625 -1.390625q-0.34375 -0.828125 -0.671875 -1.4375q-0.328125 -0.625 -0.609375 -0.9375q-0.28125 -0.3125 -0.5625 -0.46875q-0.265625 -0.15625 -0.671875 -0.234375l0.296875 -1.28125l9.9375 0z" fill-rule="nonzero"/><path fill="#000000" fill-opacity="0.0" d="m97.367455 355.0971l35.999992 0l0 51.716553l-35.999992 0z" fill-rule="evenodd"/><path fill="#990000" d="m119.66433 390.10538q-0.125 0.5625 -0.1875 1.0625q-0.0625 0.5 -0.0625 1.203125q0 0.890625 0.453125 1.265625q0.46875 0.375 1.4375 0.421875l-0.265625 1.296875l-10.375 0l0.28125 -1.296875q0.859375 -0.109375 1.359375 -0.5q0.515625 -0.390625 0.84375 -1.15625q0.34375 -0.78125 0.703125 -2.328125l1.15625 -5.28125l-2.546875 -10.859375q-0.171875 -0.75 -0.359375 -1.359375q-0.171875 -0.625 -0.421875 -1.15625q-0.234375 -0.53125 -0.484375 -0.828125q-0.25 -0.296875 -0.5 -0.421875q-0.25 -0.125 -0.71875 -0.1875l0.296875 -1.28125l9.546875 0l-0.28125 1.28125q-1.53125 0.171875 -1.53125 1.796875q0 1.03125 0.390625 2.78125l1.546875 7.140625l4.46875 -6.484375q1.078125 -1.546875 1.40625 -2.34375q0.328125 -0.8125 0.328125 -1.640625q0 -0.546875 -0.3125 -0.84375q-0.3125 -0.3125 -1.09375 -0.40625l0.296875 -1.28125l8.015617 0l-0.296875 1.28125q-0.390625 0.09375 -0.71875 0.28125q-0.3125 0.171875 -0.734375 0.578125q-0.421875 0.390625 -1.1875 1.359375q-0.765625 0.953125 -1.75 2.359375l-7.5624924 10.421875l-1.140625 5.125z" fill-rule="nonzero"/><path fill="#000000" fill-opacity="0.0" d="m170.13911 269.41733l36.0 0l0 51.716522l-36.0 0z" fill-rule="evenodd"/><path fill="#990000" d="m186.45161 307.34747l4.953125 0q0.640625 0 1.0625 -0.09375q0.421875 -0.09375 0.71875 -0.265625q0.3125 -0.171875 0.640625 -0.484375q0.328125 -0.328125 0.8125 -0.984375q0.5 -0.65625 0.859375 -1.375q0.375 -0.71875 0.75 -1.71875l2.5625 0l-1.5625 7.25l-18.640625 0l0.28125 -1.296875l16.390625 -23.046875l-4.765625 0q-0.828125 0 -1.265625 0.125q-0.421875 0.109375 -0.78125 0.359375q-0.359375 0.25 -0.828125 0.78125q-0.46875 0.515625 -1.046875 1.5q-0.578125 0.984375 -0.890625 1.765625l-2.5625 0l1.515625 -6.84375l18.46875 0l-0.296875 1.28125l-16.375 23.046875z" fill-rule="nonzero"/><path fill="#000000" fill-opacity="0.0" d="m350.69028 43.047245l36.0 0l0 51.716534l-36.0 0z" fill-rule="evenodd"/><path fill="#0b5394" d="m371.23715 70.75864q1.75 -1.59375 2.28125 -2.484375q0.53125 -0.90625 0.53125 -1.8125q0 -0.484375 -0.265625 -0.828125q-0.25 -0.34375 -0.890625 -0.421875l0.296875 -1.28125l6.3125 0l0.484375 1.28125q-0.859375 0.921875 -2.328125 2.375q-1.46875 1.4375 -2.921875 2.8125q-1.453125 1.359375 -2.640625 2.4375l2.71875 6.03125q0.40625 0.859375 0.734375 1.46875q0.328125 0.609375 0.59375 0.90625q0.28125 0.296875 0.5625 0.484375q0.296875 0.171875 0.78125 0.28125l-0.296875 1.296875l-6.40625 0l-2.75 -7.34375q-2.15625 1.890625 -2.78125 2.859375q-0.625 0.96875 -0.625 1.890625q0 0.515625 0.25 0.875q0.25 0.34375 0.90625 0.421875l-0.296875 1.296875l-6.3125 0l-0.5 -1.296875q1.25 -1.328125 3.984375 -3.953125q2.75 -2.625 4.515625 -4.171875l-2.03125 -4.609375q-0.625 -1.40625 -1.0 -2.109375q-0.375 -0.71875 -0.6875 -1.0625q-0.3125 -0.359375 -0.609375 -0.546875q-0.296875 -0.1875 -0.90625 -0.34375l0.296875 -1.28125l6.484375 0l2.515625 6.828125z" fill-rule="nonzero"/><path fill="#000000" fill-opacity="0.0" d="m475.5328 80.031494l36.0 0l0 51.716537l-36.0 0z" fill-rule="evenodd"/><path fill="#0b5394" d="m490.04843 120.289764l-1.765625 -14.5q-0.171875 -1.421875 -0.40625 -2.125q-0.21875 -0.71875 -0.609375 -1.046875q-0.375 -0.34375 -1.171875 -0.421875l0.296875 -1.28125l6.875 0l1.34375 14.59375q2.953125 -4.21875 4.34375 -7.046875q1.40625 -2.84375 1.40625 -4.71875q0 -0.734375 -0.359375 -1.109375q-0.34375 -0.390625 -1.234375 -0.4375l0.28125 -1.28125l5.5 0l0.6875 1.28125q-0.8125 2.21875 -2.5 5.234375q-1.671875 3.0 -4.1875 6.671875q-2.515625 3.671875 -5.296875 7.296875q-2.34375 3.046875 -3.9375 4.59375q-1.1875 1.171875 -2.265625 1.796875q-0.859375 0.53125 -1.8125 0.78125q-0.953125 0.25 -2.203125 0.25q-0.59375 0 -1.359375 -0.125q-0.78125 -0.125 -1.375 -0.3125l0.953125 -4.40625l2.0625 0q0.03125 0.828125 0.34375 1.21875q0.3125 0.390625 0.921875 0.390625q0.8125 0 1.46875 -0.28125q0.65625 -0.265625 1.328125 -0.84375q0.6875 -0.5625 1.625 -1.609375q0.9375 -1.03125 2.15625 -2.5625l-1.109375 0z" fill-rule="nonzero"/><path fill="#000000" fill-opacity="0.0" d="m402.69028 180.22835l54.92914 0l0 51.716537l-54.92914 0z" fill-rule="evenodd"/><path fill="#b45f06" d="m429.5038 215.31474l1.578125 1.6875q-2.046875 2.0625 -4.109375 2.9375q-2.046875 0.859375 -4.5 0.859375q-2.015625 0 -3.4375 -0.859375q-1.421875 -0.859375 -2.140625 -2.453125q-0.71875 -1.59375 -0.71875 -3.734375q0 -1.703125 0.421875 -3.390625q0.28125 -1.21875 0.75 -2.421875q0.625 -1.578125 1.46875 -2.75q1.0 -1.359375 2.390625 -2.359375q1.40625 -1.0 3.140625 -1.515625q1.75 -0.515625 3.765625 -0.515625q1.3125 0 2.828125 0.203125q1.53125 0.203125 2.703125 0.578125l-1.09375 4.765625l-3.515625 0q0.03125 -0.40625 0.03125 -0.84375q0 -1.40625 -0.4375 -2.03125q-0.421875 -0.640625 -1.25 -0.640625q-1.453125 0 -2.765625 1.65625q-1.296875 1.65625 -2.1875 4.609375q-0.875 2.953125 -0.875 5.171875q0 3.671875 2.671875 3.671875q1.359375 0 2.546875 -0.59375q1.203125 -0.609375 2.734375 -2.03125z" fill-rule="nonzero"/><path fill="#b45f06" d="m440.44913 227.12724q1.171875 -1.0625 1.515625 -1.65625q0.359375 -0.609375 0.359375 -1.203125q0 -0.328125 -0.171875 -0.546875q-0.15625 -0.234375 -0.59375 -0.28125l0.203125 -0.859375l4.203125 0l0.3125 0.859375q-0.5625 0.609375 -1.546875 1.578125q-0.96875 0.953125 -1.9375 1.875q-0.96875 0.90625 -1.765625 1.625l1.8125 4.015625q0.265625 0.578125 0.484375 0.984375q0.234375 0.390625 0.40625 0.59375q0.1875 0.203125 0.375 0.328125q0.1875 0.109375 0.515625 0.1875l-0.203125 0.859375l-4.265625 0l-1.828125 -4.890625q-1.4375 1.265625 -1.859375 1.90625q-0.40625 0.640625 -0.40625 1.25q0 0.359375 0.15625 0.59375q0.171875 0.234375 0.609375 0.28125l-0.203125 0.859375l-4.203125 0l-0.328125 -0.859375q0.828125 -0.890625 2.65625 -2.640625q1.828125 -1.75 3.0 -2.78125l-1.359375 -3.0625q-0.40625 -0.9375 -0.65625 -1.40625q-0.25 -0.484375 -0.46875 -0.71875q-0.203125 -0.234375 -0.40625 -0.359375q-0.1875 -0.125 -0.59375 -0.21875l0.1875 -0.859375l4.328125 0l1.671875 4.546875z" fill-rule="nonzero"/><path fill="#000000" fill-opacity="0.0" d="m296.69553 171.2874l54.92914 0l0 51.716537l-54.92914 0z" fill-rule="evenodd"/><path fill="#b45f06" d="m323.2813 206.3738l1.578125 1.6875q-2.046875 2.0625 -4.109375 2.9375q-2.046875 0.859375 -4.5 0.859375q-2.015625 0 -3.4375 -0.859375q-1.421875 -0.859375 -2.140625 -2.453125q-0.71875 -1.59375 -0.71875 -3.734375q0 -1.703125 0.421875 -3.390625q0.28125 -1.21875 0.75 -2.421875q0.625 -1.578125 1.46875 -2.75q1.0 -1.359375 2.390625 -2.359375q1.40625 -1.0 3.140625 -1.515625q1.75 -0.515625 3.765625 -0.515625q1.3125 0 2.828125 0.203125q1.53125 0.203125 2.703125 0.578125l-1.09375 4.765625l-3.515625 0q0.03125 -0.40625 0.03125 -0.84375q0 -1.40625 -0.4375 -2.03125q-0.421875 -0.640625 -1.25 -0.640625q-1.453125 0 -2.765625 1.65625q-1.296875 1.65625 -2.1875 4.609375q-0.875 2.953125 -0.875 5.171875q0 3.671875 2.671875 3.671875q1.359375 0 2.546875 -0.59375q1.203125 -0.609375 2.734375 -2.03125z" fill-rule="nonzero"/><path fill="#b45f06" d="m330.211 226.54567l-1.171875 -9.65625q-0.125 -0.953125 -0.28125 -1.421875q-0.140625 -0.484375 -0.390625 -0.703125q-0.25 -0.21875 -0.78125 -0.265625l0.1875 -0.859375l4.578125 0l0.90625 9.71875q1.96875 -2.8125 2.890625 -4.703125q0.9375 -1.890625 0.9375 -3.140625q0 -0.484375 -0.234375 -0.734375q-0.234375 -0.265625 -0.828125 -0.28125l0.1875 -0.859375l3.671875 0l0.453125 0.859375q-0.546875 1.46875 -1.671875 3.46875q-1.109375 2.0 -2.78125 4.453125q-1.671875 2.453125 -3.53125 4.859375q-1.5625 2.03125 -2.625 3.0625q-0.796875 0.78125 -1.515625 1.203125q-0.5625 0.34375 -1.203125 0.515625q-0.640625 0.171875 -1.46875 0.171875q-0.390625 0 -0.90625 -0.09375q-0.515625 -0.078125 -0.921875 -0.203125l0.640625 -2.9375l1.375 0q0.015625 0.546875 0.234375 0.8125q0.203125 0.265625 0.609375 0.265625q0.546875 0 0.96875 -0.1875q0.4375 -0.1875 0.890625 -0.5625q0.46875 -0.375 1.09375 -1.078125q0.625 -0.6875 1.421875 -1.703125l-0.734375 0z" fill-rule="nonzero"/><path fill="#000000" fill-opacity="0.0" d="m476.86615 0l172.09448 0l0 96.944885l-172.09448 0z" fill-rule="evenodd"/><path fill="#0b5394" d="m492.5224 35.81375q0 1.046875 0.0625 1.53125q0.078125 0.484375 0.234375 0.765625q0.171875 0.28125 0.484375 0.46875q0.328125 0.1875 1.046875 0.375l0 0.765625l-6.59375 0l0 -0.765625q0.96875 -0.25 1.296875 -0.546875q0.328125 -0.3125 0.421875 -0.875q0.109375 -0.5625 0.109375 -1.71875l0 -13.515625q0 -1.078125 -0.078125 -1.5625q-0.078125 -0.5 -0.265625 -0.765625q-0.171875 -0.28125 -0.46875 -0.4375q-0.296875 -0.171875 -1.015625 -0.375l0 -0.765625l6.59375 0l0 0.765625q-0.6875 0.171875 -1.0 0.34375q-0.296875 0.171875 -0.484375 0.4375q-0.171875 0.25 -0.265625 0.765625q-0.078125 0.515625 -0.078125 1.59375l0 13.515625zm9.453125 -8.625l0.21875 0.0625q0.9375 -0.9375 1.53125 -1.40625q0.609375 -0.484375 1.171875 -0.765625q0.5625 -0.296875 1.046875 -0.421875q0.5 -0.125 1.015625 -0.125q1.5625 0 2.546875 0.71875q0.984375 0.71875 1.359375 2.203125q1.171875 -1.1875 1.890625 -1.75q0.734375 -0.5625 1.484375 -0.859375q0.765625 -0.3125 1.640625 -0.3125q1.046875 0 1.796875 0.3125q0.765625 0.296875 1.28125 0.9375q0.53125 0.625 0.765625 1.578125q0.25 0.953125 0.25 2.5625l0 5.890625q0 1.1875 0.078125 1.640625q0.078125 0.453125 0.21875 0.703125q0.15625 0.25 0.453125 0.4375q0.296875 0.171875 1.0 0.359375l0 0.765625l-6.140625 0l0 -0.765625q0.609375 -0.1875 0.875 -0.328125q0.265625 -0.140625 0.4375 -0.390625q0.1875 -0.25 0.28125 -0.765625q0.109375 -0.53125 0.109375 -1.59375l0 -4.09375q0 -1.328125 -0.078125 -2.1875q-0.0625 -0.875 -0.21875 -1.390625q-0.140625 -0.515625 -0.359375 -0.8125q-0.203125 -0.296875 -0.46875 -0.515625q-0.265625 -0.21875 -0.625 -0.34375q-0.359375 -0.125 -0.953125 -0.125q-0.625 0 -1.171875 0.25q-0.53125 0.25 -1.171875 0.84375q-0.625 0.59375 -0.90625 1.203125q-0.28125 0.59375 -0.28125 1.40625l0 5.703125q0 1.1875 0.078125 1.640625q0.078125 0.453125 0.21875 0.703125q0.15625 0.25 0.453125 0.4375q0.296875 0.171875 1.0 0.359375l0 0.765625l-6.140625 0l0 -0.765625q0.609375 -0.1875 0.875 -0.328125q0.265625 -0.140625 0.4375 -0.390625q0.1875 -0.25 0.28125 -0.765625q0.109375 -0.53125 0.109375 -1.59375l0 -4.09375q0 -1.390625 -0.078125 -2.265625q-0.078125 -0.875 -0.25 -1.40625q-0.15625 -0.53125 -0.421875 -0.859375q-0.25 -0.328125 -0.515625 -0.5q-0.265625 -0.171875 -0.625 -0.25q-0.359375 -0.09375 -0.8125 -0.09375q-0.640625 0 -1.203125 0.296875q-0.5625 0.28125 -1.15625 0.828125q-0.578125 0.546875 -0.875 1.140625q-0.296875 0.59375 -0.296875 1.28125l0 5.859375q0 0.890625 0.046875 1.359375q0.046875 0.46875 0.140625 0.734375q0.109375 0.265625 0.265625 0.4375q0.15625 0.15625 0.4375 0.3125q0.296875 0.140625 0.875 0.296875l0 0.765625l-6.125 0l0 -0.765625q0.59375 -0.1875 0.84375 -0.328125q0.265625 -0.140625 0.453125 -0.390625q0.1875 -0.25 0.28125 -0.765625q0.09375 -0.515625 0.09375 -1.609375l0 -6.8125q0 -1.0 -0.03125 -1.609375q-0.03125 -0.609375 -0.21875 -0.96875q-0.1875 -0.375 -0.578125 -0.546875q-0.375 -0.1875 -1.078125 -0.3125l0 -0.828125l3.65625 -0.140625l0.953125 0l-0.171875 2.546875zm31.4375 10.296875l-0.234375 -0.0625q-1.359375 1.390625 -2.5625 1.96875q-1.1875 0.578125 -2.53125 0.578125q-1.1875 0 -2.09375 -0.453125q-0.90625 -0.46875 -1.390625 -1.296875q-0.484375 -0.84375 -0.484375 -1.9375q0 -2.28125 2.25 -3.515625q2.265625 -1.25 6.78125 -1.453125l0 -1.015625q0 -1.625 -0.3125 -2.5625q-0.3125 -0.9375 -0.984375 -1.375q-0.671875 -0.4375 -1.796875 -0.4375q-1.21875 0 -1.96875 0.640625q-0.734375 0.640625 -1.109375 1.921875l-2.046875 0l0 -2.03125q1.5 -0.78125 2.5 -1.140625q1.0 -0.375 2.0 -0.578125q1.0 -0.21875 2.03125 -0.21875q1.546875 0 2.484375 0.5q0.9375 0.484375 1.40625 1.5q0.46875 1.015625 0.46875 3.0625l0 5.4375q0 1.15625 0.015625 1.640625q0.015625 0.46875 0.09375 0.875q0.078125 0.40625 0.234375 0.65625q0.15625 0.234375 0.453125 0.40625q0.3125 0.171875 1.0 0.359375l0 0.765625l-4.28125 0l0.078125 -2.234375zm-0.265625 -4.890625q-3.171875 0.03125 -4.75 0.84375q-1.578125 0.8125 -1.578125 2.453125q0 0.890625 0.359375 1.40625q0.359375 0.515625 0.90625 0.71875q0.546875 0.1875 1.296875 0.1875q1.0625 0 1.921875 -0.515625q0.875 -0.515625 1.359375 -1.3125q0.484375 -0.796875 0.484375 -1.578125l0 -2.203125zm20.875 -6.234375l-2.890625 -0.109375l-0.140625 0.171875q0.484375 0.484375 0.765625 1.328125q0.28125 0.828125 0.28125 1.796875q0 2.546875 -1.578125 3.9375q-1.5625 1.375 -4.453125 1.375q-1.296875 0 -2.234375 -0.328125q-1.1875 0.90625 -1.1875 1.78125q0 0.578125 0.21875 0.875q0.234375 0.296875 0.75 0.421875q0.53125 0.125 1.59375 0.125l3.75 0q1.65625 0 2.703125 0.515625q1.046875 0.515625 1.484375 1.390625q0.453125 0.859375 0.453125 2.015625q0 1.46875 -0.84375 2.609375q-0.84375 1.15625 -2.4375 1.796875q-1.59375 0.640625 -3.71875 0.640625q-1.578125 0 -2.890625 -0.1875q-1.296875 -0.1875 -2.234375 -0.640625q-0.921875 -0.4375 -1.4375 -1.171875q-0.5 -0.71875 -0.5 -1.8125q0 -0.984375 0.65625 -1.796875q0.65625 -0.796875 1.859375 -1.40625q-0.734375 -0.296875 -1.15625 -0.875q-0.421875 -0.578125 -0.421875 -1.359375q0 -0.890625 0.5 -1.625q0.5 -0.75 1.765625 -1.703125q-1.125 -0.65625 -1.71875 -1.78125q-0.578125 -1.125 -0.578125 -2.5625q0 -1.34375 0.4375 -2.328125q0.453125 -1.0 1.234375 -1.640625q0.796875 -0.65625 1.875 -0.96875q1.078125 -0.328125 2.328125 -0.328125q1.125 0 2.234375 0.265625l5.53125 0l0 1.578125zm-10.84375 3.171875q0 1.953125 0.796875 3.015625q0.796875 1.0625 2.296875 1.0625q0.796875 0 1.359375 -0.296875q0.5625 -0.3125 0.90625 -0.84375q0.359375 -0.53125 0.515625 -1.21875q0.171875 -0.703125 0.171875 -1.46875q0 -1.375 -0.390625 -2.296875q-0.390625 -0.921875 -1.0625 -1.34375q-0.671875 -0.4375 -1.546875 -0.4375q-1.484375 0 -2.265625 0.984375q-0.78125 0.984375 -0.78125 2.84375zm0.390625 10.4375q-0.796875 0.59375 -1.203125 1.25q-0.390625 0.671875 -0.390625 1.515625q0 1.40625 1.109375 2.0625q1.125 0.671875 3.421875 0.671875q1.40625 0 2.40625 -0.375q1.015625 -0.375 1.546875 -1.078125q0.53125 -0.703125 0.53125 -1.640625q0 -0.4375 -0.109375 -0.859375q-0.109375 -0.40625 -0.421875 -0.734375q-0.296875 -0.328125 -0.859375 -0.53125q-0.5625 -0.1875 -1.46875 -0.1875l-2.328125 0q-1.265625 0 -2.234375 -0.09375zm24.734375 -2.90625q-1.0 1.046875 -1.84375 1.640625q-0.828125 0.59375 -1.828125 0.9375q-1.0 0.328125 -2.203125 0.328125q-3.21875 0 -4.859375 -1.921875q-1.640625 -1.9375 -1.640625 -5.703125q0 -2.328125 0.828125 -4.109375q0.84375 -1.78125 2.390625 -2.75q1.546875 -0.96875 3.5625 -0.96875q1.578125 0 2.6875 0.5q1.109375 0.5 1.765625 1.375q0.671875 0.859375 1.03125 2.1875q0.375 1.3125 0.421875 3.4375l-9.84375 0l0 0.28125q0 1.84375 0.40625 3.109375q0.421875 1.25 1.359375 1.96875q0.953125 0.703125 2.46875 0.703125q1.28125 0 2.296875 -0.46875q1.03125 -0.484375 2.046875 -1.5625l0.953125 1.015625zm-2.625 -6.34375q-0.09375 -1.6875 -0.421875 -2.75q-0.328125 -1.078125 -0.984375 -1.640625q-0.65625 -0.578125 -1.71875 -0.578125q-1.609375 0 -2.578125 1.296875q-0.953125 1.28125 -1.125 3.671875l6.828125 0z" fill-rule="nonzero"/><path fill="#0b5394" d="m502.1474 57.245003l0 4.328125l-1.546875 0q-0.375 -1.359375 -0.953125 -2.15625q-0.578125 -0.8125 -1.34375 -1.15625q-0.765625 -0.34375 -1.84375 -0.34375q-1.609375 0 -2.875 1.078125q-1.25 1.0625 -1.96875 3.21875q-0.71875 2.140625 -0.71875 5.1875q0 3.0625 0.59375 5.234375q0.59375 2.15625 1.75 3.265625q1.15625 1.09375 2.84375 1.09375q1.28125 0 2.09375 -0.359375q0.8125 -0.375 1.359375 -1.171875q0.5625 -0.796875 1.0625 -2.34375l1.546875 0l0 4.46875q-1.46875 0.390625 -3.015625 0.578125q-1.53125 0.203125 -3.375 0.203125q-3.96875 0 -6.0 -2.6875q-2.03125 -2.6875 -2.03125 -8.015625q0 -3.34375 1.046875 -5.859375q1.0625 -2.515625 3.109375 -3.890625q2.046875 -1.375 4.890625 -1.375q1.421875 0 2.625 0.15625q1.203125 0.140625 2.75 0.546875zm10.03125 21.125q-3.25 0 -4.96875 -1.90625q-1.703125 -1.921875 -1.703125 -5.671875q0 -2.578125 0.890625 -4.359375q0.90625 -1.78125 2.46875 -2.640625q1.5625 -0.875 3.5625 -0.875q3.34375 0 5.0625 1.953125q1.71875 1.9375 1.71875 5.578125q0 2.59375 -0.859375 4.375q-0.859375 1.78125 -2.4375 2.671875q-1.578125 0.875 -3.734375 0.875zm-3.71875 -7.90625q0 3.21875 1.015625 4.953125q1.03125 1.71875 2.9375 1.71875q1.046875 0 1.78125 -0.5q0.734375 -0.515625 1.1875 -1.375q0.46875 -0.859375 0.671875 -1.984375q0.203125 -1.140625 0.203125 -2.375q0 -2.296875 -0.515625 -3.8125q-0.5 -1.515625 -1.375 -2.21875q-0.875 -0.71875 -2.0 -0.71875q-1.890625 0 -2.90625 1.640625q-1.0 1.640625 -1.0 4.671875zm20.703125 7.90625q-3.25 0 -4.96875 -1.90625q-1.703125 -1.921875 -1.703125 -5.671875q0 -2.578125 0.890625 -4.359375q0.90625 -1.78125 2.46875 -2.640625q1.5625 -0.875 3.5625 -0.875q3.34375 0 5.0625 1.953125q1.71875 1.9375 1.71875 5.578125q0 2.59375 -0.859375 4.375q-0.859375 1.78125 -2.4375 2.671875q-1.578125 0.875 -3.734375 0.875zm-3.71875 -7.90625q0 3.21875 1.015625 4.953125q1.03125 1.71875 2.9375 1.71875q1.046875 0 1.78125 -0.5q0.734375 -0.515625 1.1875 -1.375q0.46875 -0.859375 0.671875 -1.984375q0.203125 -1.140625 0.203125 -2.375q0 -2.296875 -0.515625 -3.8125q-0.5 -1.515625 -1.375 -2.21875q-0.875 -0.71875 -2.0 -0.71875q-1.890625 0 -2.90625 1.640625q-1.0 1.640625 -1.0 4.671875zm18.125 -4.6875l0.21875 0.046875q0.859375 -1.046875 1.59375 -1.640625q0.734375 -0.609375 1.578125 -0.9375q0.859375 -0.328125 1.9375 -0.328125q0.90625 0 1.640625 0.09375l0 3.59375l-1.765625 0q-0.375 -0.84375 -0.796875 -1.21875q-0.421875 -0.390625 -1.15625 -0.390625q-0.5625 0 -1.125 0.328125q-0.546875 0.328125 -1.0625 0.953125q-0.515625 0.625 -0.71875 1.171875q-0.1875 0.546875 -0.1875 1.296875l0 5.46875q0 1.421875 0.171875 1.96875q0.171875 0.53125 0.5625 0.78125q0.40625 0.25 1.203125 0.390625l0 0.765625l-6.296875 0l0 -0.765625q0.59375 -0.1875 0.84375 -0.328125q0.265625 -0.140625 0.453125 -0.390625q0.1875 -0.25 0.28125 -0.765625q0.09375 -0.515625 0.09375 -1.609375l0 -6.8125q0 -1.0 -0.03125 -1.609375q-0.03125 -0.609375 -0.21875 -0.96875q-0.1875 -0.375 -0.578125 -0.546875q-0.375 -0.1875 -1.078125 -0.3125l0 -0.8125l3.65625 -0.15625l0.953125 0l-0.171875 2.734375zm19.09375 -4.640625q0 -1.5 -0.03125 -2.09375q-0.015625 -0.59375 -0.125 -1.0q-0.09375 -0.421875 -0.28125 -0.65625q-0.171875 -0.234375 -0.484375 -0.375q-0.296875 -0.140625 -1.09375 -0.28125l0 -0.8125l3.78125 -0.15625l0.921875 0l0 18.09375q0 1.21875 0.046875 1.75q0.046875 0.515625 0.203125 0.828125q0.15625 0.3125 0.484375 0.515625q0.34375 0.1875 1.1875 0.359375l0 0.8125l-3.6875 0.15625l-0.9375 0l0.1875 -2.5625l-0.234375 -0.0625q-0.984375 1.046875 -1.71875 1.578125q-0.71875 0.515625 -1.546875 0.828125q-0.8125 0.3125 -1.75 0.3125q-2.5625 0 -3.953125 -1.9375q-1.390625 -1.953125 -1.390625 -5.625q0 -2.5625 0.90625 -4.34375q0.90625 -1.796875 2.4375 -2.671875q1.546875 -0.875 3.46875 -0.875q1.03125 0 1.875 0.171875q0.84375 0.15625 1.734375 0.53125l0 -2.484375zm0 7.71875q0 -1.21875 -0.109375 -1.953125q-0.109375 -0.734375 -0.375 -1.234375q-0.25 -0.5 -0.6875 -0.84375q-0.4375 -0.34375 -0.96875 -0.5q-0.515625 -0.15625 -1.25 -0.15625q-2.0 0 -3.046875 1.609375q-1.046875 1.59375 -1.046875 4.59375q0 3.0 0.859375 4.5625q0.859375 1.5625 2.609375 1.5625q0.6875 0 1.140625 -0.109375q0.453125 -0.125 0.890625 -0.375q0.4375 -0.265625 0.890625 -0.71875q0.453125 -0.453125 0.65625 -0.828125q0.21875 -0.375 0.328125 -0.859375q0.109375 -0.484375 0.109375 -1.25l0 -3.5zm11.671875 -11.796875l0 3.03125l-2.875 0l0 -3.03125l2.875 0zm-4.46875 20.296875q0.609375 -0.1875 0.859375 -0.328125q0.265625 -0.140625 0.4375 -0.390625q0.1875 -0.25 0.28125 -0.765625q0.109375 -0.515625 0.109375 -1.609375l0 -6.8125q0 -1.0 -0.03125 -1.609375q-0.03125 -0.609375 -0.21875 -0.96875q-0.1875 -0.375 -0.578125 -0.546875q-0.375 -0.1875 -1.078125 -0.3125l0 -0.828125l3.640625 -0.140625l0.953125 0l0 11.171875q0 1.34375 0.125 1.875q0.125 0.515625 0.46875 0.796875q0.359375 0.265625 1.15625 0.46875l0 0.765625l-6.125 0l0 -0.765625zm24.109375 0.765625l-6.15625 0l0 -0.765625q0.609375 -0.1875 0.875 -0.328125q0.265625 -0.140625 0.4375 -0.390625q0.1875 -0.25 0.28125 -0.765625q0.109375 -0.53125 0.109375 -1.59375l0 -4.09375q0 -1.09375 -0.0625 -1.984375q-0.0625 -0.890625 -0.21875 -1.453125q-0.140625 -0.578125 -0.359375 -0.890625q-0.203125 -0.328125 -0.5 -0.546875q-0.28125 -0.234375 -0.65625 -0.359375q-0.375 -0.140625 -0.984375 -0.140625q-0.609375 0 -1.15625 0.25q-0.546875 0.234375 -1.203125 0.828125q-0.65625 0.59375 -0.953125 1.171875q-0.296875 0.578125 -0.296875 1.328125l0 5.828125q0 1.34375 0.125 1.875q0.125 0.515625 0.46875 0.796875q0.359375 0.265625 1.15625 0.46875l0 0.765625l-6.125 0l0 -0.765625q0.609375 -0.1875 0.859375 -0.328125q0.265625 -0.140625 0.4375 -0.390625q0.1875 -0.25 0.28125 -0.765625q0.109375 -0.515625 0.109375 -1.609375l0 -6.8125q0 -1.0 -0.03125 -1.609375q-0.03125 -0.609375 -0.21875 -0.96875q-0.1875 -0.375 -0.578125 -0.546875q-0.375 -0.1875 -1.078125 -0.3125l0 -0.828125l3.65625 -0.140625l0.953125 0l-0.171875 2.546875l0.21875 0.0625q1.15625 -1.171875 1.859375 -1.671875q0.71875 -0.5 1.4375 -0.765625q0.734375 -0.28125 1.546875 -0.28125q0.84375 0 1.5 0.203125q0.671875 0.1875 1.171875 0.59375q0.515625 0.40625 0.84375 1.015625q0.328125 0.59375 0.484375 1.4375q0.171875 0.84375 0.171875 2.140625l0 5.890625q0 1.078125 0.0625 1.5625q0.0625 0.484375 0.21875 0.75q0.15625 0.265625 0.453125 0.453125q0.296875 0.171875 1.03125 0.375l0 0.765625zm11.671875 -2.234375l-0.234375 -0.0625q-1.359375 1.390625 -2.5625 1.96875q-1.1875 0.578125 -2.53125 0.578125q-1.1875 0 -2.09375 -0.453125q-0.90625 -0.46875 -1.390625 -1.296875q-0.484375 -0.84375 -0.484375 -1.9375q0 -2.28125 2.25 -3.515625q2.265625 -1.25 6.78125 -1.453125l0 -1.015625q0 -1.625 -0.3125 -2.5625q-0.3125 -0.9375 -0.984375 -1.375q-0.671875 -0.4375 -1.796875 -0.4375q-1.21875 0 -1.96875 0.640625q-0.734375 0.640625 -1.109375 1.921875l-2.046875 0l0 -2.03125q1.5 -0.78125 2.5 -1.140625q1.0 -0.375 2.0 -0.578125q1.0 -0.21875 2.03125 -0.21875q1.546875 0 2.484375 0.5q0.9375 0.484375 1.40625 1.5q0.46875 1.015625 0.46875 3.0625l0 5.4375q0 1.15625 0.015625 1.640625q0.015625 0.46875 0.09375 0.875q0.078125 0.40625 0.234375 0.65625q0.15625 0.234375 0.453125 0.40625q0.3125 0.171875 1.0 0.359375l0 0.765625l-4.28125 0l0.078125 -2.234375zm-0.265625 -4.890625q-3.171875 0.03125 -4.75 0.84375q-1.578125 0.8125 -1.578125 2.453125q0 0.890625 0.359375 1.40625q0.359375 0.515625 0.90625 0.71875q0.546875 0.1875 1.296875 0.1875q1.0625 0 1.921875 -0.515625q0.875 -0.515625 1.359375 -1.3125q0.484375 -0.796875 0.484375 -1.578125l0 -2.203125zm5.921875 -7.03125q0.78125 -0.125 1.265625 -0.4375q0.484375 -0.3125 0.75 -0.796875q0.28125 -0.5 0.4375 -1.234375q0.15625 -0.75 0.328125 -2.171875l2.21875 0l0 3.859375l5.046875 0l0 1.578125l-5.046875 0l0 6.953125q0 1.515625 0.125 2.421875q0.125 0.890625 0.46875 1.40625q0.34375 0.5 0.78125 0.71875q0.4375 0.21875 1.125 0.21875q0.625 0 1.171875 -0.25q0.546875 -0.265625 1.078125 -0.75l0.703125 0.84375q-1.109375 1.078125 -2.109375 1.5625q-0.984375 0.484375 -2.046875 0.484375q-2.015625 0 -3.0 -1.1875q-0.984375 -1.203125 -0.984375 -3.75l0 -8.671875l-2.3125 0l0 -0.796875zm23.96875 11.5q-1.0 1.046875 -1.84375 1.640625q-0.828125 0.59375 -1.828125 0.9375q-1.0 0.328125 -2.203125 0.328125q-3.21875 0 -4.859375 -1.921875q-1.640625 -1.9375 -1.640625 -5.703125q0 -2.328125 0.828125 -4.109375q0.84375 -1.78125 2.390625 -2.75q1.546875 -0.96875 3.5625 -0.96875q1.578125 0 2.6875 0.5q1.109375 0.5 1.765625 1.375q0.671875 0.859375 1.03125 2.1875q0.375 1.3125 0.421875 3.4375l-9.84375 0l0 0.28125q0 1.84375 0.40625 3.109375q0.421875 1.25 1.359375 1.96875q0.953125 0.703125 2.46875 0.703125q1.28125 0 2.296875 -0.46875q1.03125 -0.484375 2.046875 -1.5625l0.953125 1.015625zm-2.625 -6.34375q-0.09375 -1.6875 -0.421875 -2.75q-0.328125 -1.078125 -0.984375 -1.640625q-0.65625 -0.578125 -1.71875 -0.578125q-1.609375 0 -2.578125 1.296875q-0.953125 1.28125 -1.125 3.671875l6.828125 0z" fill-rule="nonzero"/><path fill="#000000" fill-opacity="0.0" d="m9.036745 389.3176l197.10237 0l0 96.944885l-197.10237 0z" fill-rule="evenodd"/><path fill="#990000" d="m34.317997 408.1626l0 4.328125l-1.546875 0q-0.375 -1.359375 -0.9531269 -2.15625q-0.578125 -0.8125 -1.34375 -1.15625q-0.765625 -0.34375 -1.84375 -0.34375q-1.609375 0 -2.875 1.078125q-1.25 1.0625 -1.96875 3.21875q-0.71875 2.140625 -0.71875 5.1875q0 3.0625 0.59375 5.234375q0.59375 2.15625 1.75 3.265625q1.15625 1.09375 2.84375 1.09375q1.28125 0 2.09375 -0.359375q0.8125 -0.375 1.359375 -1.171875q0.5625019 -0.796875 1.0625019 -2.34375l1.546875 0l0 4.46875q-1.46875 0.390625 -3.015627 0.578125q-1.53125 0.203125 -3.375 0.203125q-3.96875 0 -6.0 -2.6875q-2.03125 -2.6875 -2.03125 -8.015625q0 -3.34375 1.046875 -5.859375q1.0625 -2.515625 3.109375 -3.890625q2.046875 -1.375 4.890625 -1.375q1.421875 0 2.625 0.15625q1.2031269 0.140625 2.750002 0.546875zm12.265625 18.640625l-0.234375 -0.0625q-1.359375 1.390625 -2.5625 1.96875q-1.1875 0.578125 -2.53125 0.578125q-1.1875 0 -2.09375 -0.453125q-0.90625 -0.46875 -1.390625 -1.296875q-0.484375 -0.84375 -0.484375 -1.9375q0 -2.28125 2.25 -3.515625q2.265625 -1.25 6.78125 -1.453125l0 -1.015625q0 -1.625 -0.3125 -2.5625q-0.3125 -0.9375 -0.984375 -1.375q-0.671875 -0.4375 -1.796875 -0.4375q-1.21875 0 -1.96875 0.640625q-0.734375 0.640625 -1.109375 1.921875l-2.046875 0l0 -2.03125q1.5 -0.78125 2.5 -1.140625q1.0 -0.375 2.0 -0.578125q1.0 -0.21875 2.03125 -0.21875q1.546875 0 2.484375 0.5q0.9375 0.484375 1.40625 1.5q0.46875 1.015625 0.46875 3.0625l0 5.4375q0 1.15625 0.015625 1.640625q0.015625 0.46875 0.09375 0.875q0.078125 0.40625 0.234375 0.65625q0.15625 0.234375 0.453125 0.40625q0.3125 0.171875 1.0 0.359375l0 0.765625l-4.28125 0l0.078125 -2.234375zm-0.265625 -4.890625q-3.171875 0.03125 -4.75 0.84375q-1.578125 0.8125 -1.578125 2.453125q0 0.890625 0.359375 1.40625q0.359375 0.515625 0.90625 0.71875q0.546875 0.1875 1.296875 0.1875q1.0625 0 1.921875 -0.515625q0.875 -0.515625 1.359375 -1.3125q0.484375 -0.796875 0.484375 -1.578125l0 -2.203125zm11.078125 -5.40625l0.21875 0.0625q0.9375 -0.9375 1.53125 -1.40625q0.609375 -0.484375 1.171875 -0.765625q0.5625 -0.296875 1.046875 -0.421875q0.5 -0.125 1.015625 -0.125q1.5625 0 2.5468712 0.71875q0.984375 0.71875 1.359375 2.203125q1.171875 -1.1875 1.890625 -1.75q0.734375 -0.5625 1.484375 -0.859375q0.765625 -0.3125 1.640625 -0.3125q1.046875 0 1.796875 0.3125q0.765625 0.296875 1.28125 0.9375q0.53125 0.625 0.765625 1.578125q0.25 0.953125 0.25 2.5625l0 5.890625q0 1.1875 0.078125 1.640625q0.078125 0.453125 0.21875 0.703125q0.15625 0.25 0.453125 0.4375q0.296875 0.171875 1.0 0.359375l0 0.765625l-6.140625 0l0 -0.765625q0.609375 -0.1875 0.875 -0.328125q0.265625 -0.140625 0.4375 -0.390625q0.1875 -0.25 0.28125 -0.765625q0.109375 -0.53125 0.109375 -1.59375l0 -4.09375q0 -1.328125 -0.078125 -2.1875q-0.0625 -0.875 -0.21875 -1.390625q-0.140625 -0.515625 -0.359375 -0.8125q-0.203125 -0.296875 -0.46875 -0.515625q-0.265625 -0.21875 -0.625 -0.34375q-0.359375 -0.125 -0.953125 -0.125q-0.625 0 -1.171875 0.25q-0.53125 0.25 -1.171875 0.84375q-0.625 0.59375 -0.90625 1.203125q-0.28125 0.59375 -0.28125 1.40625l0 5.703125q0 1.1875 0.078125 1.640625q0.078125 0.453125 0.21875 0.703125q0.15625 0.25 0.453125 0.4375q0.296875 0.171875 1.0 0.359375l0 0.765625l-6.140621 0l0 -0.765625q0.609375 -0.1875 0.875 -0.328125q0.265625 -0.140625 0.4375 -0.390625q0.1875 -0.25 0.28125 -0.765625q0.109375 -0.53125 0.109375 -1.59375l0 -4.09375q0 -1.390625 -0.078125 -2.265625q-0.078125 -0.875 -0.25 -1.40625q-0.15625 -0.53125 -0.421875 -0.859375q-0.25 -0.328125 -0.515625 -0.5q-0.265625 -0.171875 -0.625 -0.25q-0.359375 -0.09375 -0.8125 -0.09375q-0.640625 0 -1.203125 0.296875q-0.5625 0.28125 -1.15625 0.828125q-0.578125 0.546875 -0.875 1.140625q-0.296875 0.59375 -0.296875 1.28125l0 5.859375q0 0.890625 0.046875 1.359375q0.046875 0.46875 0.140625 0.734375q0.109375 0.265625 0.265625 0.4375q0.15625 0.15625 0.4375 0.3125q0.296875 0.140625 0.875 0.296875l0 0.765625l-6.125 0l0 -0.765625q0.59375 -0.1875 0.84375 -0.328125q0.265625 -0.140625 0.453125 -0.390625q0.1875 -0.25 0.28125 -0.765625q0.09375 -0.515625 0.09375 -1.609375l0 -6.8125q0 -1.0 -0.03125 -1.609375q-0.03125 -0.609375 -0.21875 -0.96875q-0.1875 -0.375 -0.578125 -0.546875q-0.375 -0.1875 -1.078125 -0.3125l0 -0.828125l3.65625 -0.140625l0.953125 0l-0.171875 2.546875zm34.89062 9.875q-1.0 1.046875 -1.84375 1.640625q-0.828125 0.59375 -1.828125 0.9375q-1.0 0.328125 -2.203125 0.328125q-3.21875 0 -4.859375 -1.921875q-1.640625 -1.9375 -1.640625 -5.703125q0 -2.328125 0.828125 -4.109375q0.84375 -1.78125 2.390625 -2.75q1.546875 -0.96875 3.5625 -0.96875q1.578125 0 2.6875 0.5q1.109375 0.5 1.765625 1.375q0.671875 0.859375 1.03125 2.1875q0.375 1.3125 0.421875 3.4375l-9.84375 0l0 0.28125q0 1.84375 0.40625 3.109375q0.421875 1.25 1.359375 1.96875q0.953125 0.703125 2.46875 0.703125q1.28125 0 2.296875 -0.46875q1.03125 -0.484375 2.046875 -1.5625l0.953125 1.015625zm-2.625 -6.34375q-0.09375 -1.6875 -0.421875 -2.75q-0.328125 -1.078125 -0.984375 -1.640625q-0.65625 -0.578125 -1.71875 -0.578125q-1.609375 0 -2.578125 1.296875q-0.953125 1.28125 -1.125 3.671875l6.828125 0zm9.96875 -3.34375l0.21875 0.046875q0.859375 -1.046875 1.59375 -1.640625q0.734375 -0.609375 1.578125 -0.9375q0.859375 -0.328125 1.9375 -0.328125q0.90625 0 1.640625 0.09375l0 3.59375l-1.765625 0q-0.375 -0.84375 -0.796875 -1.21875q-0.421875 -0.390625 -1.15625 -0.390625q-0.5625 0 -1.125 0.328125q-0.546875 0.328125 -1.0625 0.953125q-0.515625 0.625 -0.71875 1.171875q-0.1875 0.546875 -0.1875 1.296875l0 5.46875q0 1.421875 0.171875 1.96875q0.171875 0.53125 0.5625 0.78125q0.40625 0.25 1.203125 0.390625l0 0.765625l-6.296875 0l0 -0.765625q0.59375 -0.1875 0.84375 -0.328125q0.265625 -0.140625 0.453125 -0.390625q0.1875 -0.25 0.28125 -0.765625q0.09375 -0.515625 0.09375 -1.609375l0 -6.8125q0 -1.0 -0.03125 -1.609375q-0.03125 -0.609375 -0.21875 -0.96875q-0.1875 -0.375 -0.578125 -0.546875q-0.375 -0.1875 -1.078125 -0.3125l0 -0.8125l3.65625 -0.15625l0.953125 0l-0.171875 2.734375zm17.5 10.109375l-0.234375 -0.0625q-1.359375 1.390625 -2.5625 1.96875q-1.1875 0.578125 -2.53125 0.578125q-1.1875 0 -2.09375 -0.453125q-0.90625 -0.46875 -1.390625 -1.296875q-0.484375 -0.84375 -0.484375 -1.9375q0 -2.28125 2.25 -3.515625q2.265625 -1.25 6.78125 -1.453125l0 -1.015625q0 -1.625 -0.3125 -2.5625q-0.3125 -0.9375 -0.984375 -1.375q-0.671875 -0.4375 -1.796875 -0.4375q-1.21875 0 -1.96875 0.640625q-0.734375 0.640625 -1.109375 1.921875l-2.046875 0l0 -2.03125q1.5 -0.78125 2.5 -1.140625q1.0 -0.375 2.0 -0.578125q1.0 -0.21875 2.03125 -0.21875q1.546875 0 2.484375 0.5q0.9375 0.484375 1.40625 1.5q0.46875 1.015625 0.46875 3.0625l0 5.4375q0 1.15625 0.015625 1.640625q0.015625 0.46875 0.09375 0.875q0.078125 0.40625 0.234375 0.65625q0.15625 0.234375 0.453125 0.40625q0.3125 0.171875 1.0 0.359375l0 0.765625l-4.28125 0l0.078125 -2.234375zm-0.265625 -4.890625q-3.171875 0.03125 -4.75 0.84375q-1.578125 0.8125 -1.578125 2.453125q0 0.890625 0.359375 1.40625q0.359375 0.515625 0.90625 0.71875q0.546875 0.1875 1.296875 0.1875q1.0625 0 1.921875 -0.515625q0.875 -0.515625 1.359375 -1.3125q0.484375 -0.796875 0.484375 -1.578125l0 -2.203125z" fill-rule="nonzero"/><path fill="#990000" d="m34.317997 446.5626l0 4.328125l-1.546875 0q-0.375 -1.359375 -0.9531269 -2.15625q-0.578125 -0.8125 -1.34375 -1.15625q-0.765625 -0.34375 -1.84375 -0.34375q-1.609375 0 -2.875 1.078125q-1.25 1.0625 -1.96875 3.21875q-0.71875 2.140625 -0.71875 5.1875q0 3.0625 0.59375 5.234375q0.59375 2.15625 1.75 3.265625q1.15625 1.09375 2.84375 1.09375q1.28125 0 2.09375 -0.359375q0.8125 -0.375 1.359375 -1.171875q0.5625019 -0.796875 1.0625019 -2.34375l1.546875 0l0 4.46875q-1.46875 0.390625 -3.015627 0.578125q-1.53125 0.203125 -3.375 0.203125q-3.96875 0 -6.0 -2.6875q-2.03125 -2.6875 -2.03125 -8.015625q0 -3.34375 1.046875 -5.859375q1.0625 -2.515625 3.109375 -3.890625q2.046875 -1.375 4.890625 -1.375q1.421875 0 2.625 0.15625q1.2031269 0.140625 2.750002 0.546875zm10.03125 21.125q-3.25 0 -4.96875 -1.90625q-1.703125 -1.921875 -1.703125 -5.671875q0 -2.578125 0.890625 -4.359375q0.90625 -1.78125 2.46875 -2.640625q1.5625 -0.875 3.5625 -0.875q3.34375 0 5.0625 1.953125q1.71875 1.9375 1.71875 5.578125q0 2.59375 -0.859375 4.375q-0.859375 1.78125 -2.4375 2.671875q-1.578125 0.875 -3.734375 0.875zm-3.71875 -7.90625q0 3.21875 1.015625 4.953125q1.03125 1.71875 2.9375 1.71875q1.046875 0 1.78125 -0.5q0.734375 -0.515625 1.1875 -1.375q0.46875 -0.859375 0.671875 -1.984375q0.203125 -1.140625 0.203125 -2.375q0 -2.296875 -0.515625 -3.8125q-0.5 -1.515625 -1.375 -2.21875q-0.875 -0.71875 -2.0 -0.71875q-1.890625 0 -2.90625 1.640625q-1.0 1.640625 -1.0 4.671875zm20.703125 7.90625q-3.25 0 -4.96875 -1.90625q-1.703125 -1.921875 -1.703125 -5.671875q0 -2.578125 0.890625 -4.359375q0.90625 -1.78125 2.46875 -2.640625q1.5625 -0.875 3.5625 -0.875q3.3437462 0 5.062496 1.953125q1.71875 1.9375 1.71875 5.578125q0 2.59375 -0.859375 4.375q-0.859375 1.78125 -2.4375 2.671875q-1.5781212 0.875 -3.7343712 0.875zm-3.71875 -7.90625q0 3.21875 1.015625 4.953125q1.03125 1.71875 2.9375 1.71875q1.046875 0 1.78125 -0.5q0.7343712 -0.515625 1.1874962 -1.375q0.46875 -0.859375 0.671875 -1.984375q0.203125 -1.140625 0.203125 -2.375q0 -2.296875 -0.515625 -3.8125q-0.5 -1.515625 -1.3749962 -2.21875q-0.875 -0.71875 -2.0 -0.71875q-1.890625 0 -2.90625 1.640625q-1.0 1.640625 -1.0 4.671875zm18.124996 -4.6875l0.21875 0.046875q0.859375 -1.046875 1.59375 -1.640625q0.734375 -0.609375 1.578125 -0.9375q0.859375 -0.328125 1.9375 -0.328125q0.90625 0 1.640625 0.09375l0 3.59375l-1.765625 0q-0.375 -0.84375 -0.796875 -1.21875q-0.421875 -0.390625 -1.15625 -0.390625q-0.5625 0 -1.125 0.328125q-0.546875 0.328125 -1.0625 0.953125q-0.515625 0.625 -0.71875 1.171875q-0.1875 0.546875 -0.1875 1.296875l0 5.46875q0 1.421875 0.171875 1.96875q0.171875 0.53125 0.5625 0.78125q0.40625 0.25 1.203125 0.390625l0 0.765625l-6.296875 0l0 -0.765625q0.59375 -0.1875 0.84375 -0.328125q0.265625 -0.140625 0.453125 -0.390625q0.1875 -0.25 0.28125 -0.765625q0.09375 -0.515625 0.09375 -1.609375l0 -6.8125q0 -1.0 -0.03125 -1.609375q-0.03125 -0.609375 -0.21875 -0.96875q-0.1875 -0.375 -0.578125 -0.546875q-0.375 -0.1875 -1.078125 -0.3125l0 -0.8125l3.65625 -0.15625l0.953125 0l-0.171875 2.734375zm19.09375 -4.640625q0 -1.5 -0.03125 -2.09375q-0.015625 -0.59375 -0.125 -1.0q-0.09375 -0.421875 -0.28125 -0.65625q-0.171875 -0.234375 -0.484375 -0.375q-0.296875 -0.140625 -1.09375 -0.28125l0 -0.8125l3.78125 -0.15625l0.921875 0l0 18.09375q0 1.21875 0.046875 1.75q0.046875 0.515625 0.203125 0.828125q0.15625 0.3125 0.484375 0.515625q0.34375 0.1875 1.1875 0.359375l0 0.8125l-3.6875 0.15625l-0.9375 0l0.1875 -2.5625l-0.234375 -0.0625q-0.984375 1.046875 -1.71875 1.578125q-0.71875 0.515625 -1.546875 0.828125q-0.8125 0.3125 -1.75 0.3125q-2.5625 0 -3.953125 -1.9375q-1.390625 -1.953125 -1.390625 -5.625q0 -2.5625 0.90625 -4.34375q0.90625 -1.796875 2.4375 -2.671875q1.546875 -0.875 3.46875 -0.875q1.03125 0 1.875 0.171875q0.84375 0.15625 1.734375 0.53125l0 -2.484375zm0 7.71875q0 -1.21875 -0.109375 -1.953125q-0.109375 -0.734375 -0.375 -1.234375q-0.25 -0.5 -0.6875 -0.84375q-0.4375 -0.34375 -0.96875 -0.5q-0.515625 -0.15625 -1.25 -0.15625q-2.0 0 -3.046875 1.609375q-1.046875 1.59375 -1.046875 4.59375q0 3.0 0.859375 4.5625q0.859375 1.5625 2.609375 1.5625q0.6875 0 1.140625 -0.109375q0.453125 -0.125 0.890625 -0.375q0.4375 -0.265625 0.890625 -0.71875q0.453125 -0.453125 0.65625 -0.828125q0.21875 -0.375 0.328125 -0.859375q0.109375 -0.484375 0.109375 -1.25l0 -3.5zm11.671875 -11.796875l0 3.03125l-2.875 0l0 -3.03125l2.875 0zm-4.46875 20.296875q0.609375 -0.1875 0.859375 -0.328125q0.265625 -0.140625 0.4375 -0.390625q0.1875 -0.25 0.28125 -0.765625q0.109375 -0.515625 0.109375 -1.609375l0 -6.8125q0 -1.0 -0.03125 -1.609375q-0.03125 -0.609375 -0.21875 -0.96875q-0.1875 -0.375 -0.578125 -0.546875q-0.375 -0.1875 -1.078125 -0.3125l0 -0.828125l3.640625 -0.140625l0.953125 0l0 11.171875q0 1.34375 0.125 1.875q0.125 0.515625 0.46875 0.796875q0.359375 0.265625 1.15625 0.46875l0 0.765625l-6.125 0l0 -0.765625zm24.109375 0.765625l-6.15625 0l0 -0.765625q0.609375 -0.1875 0.875 -0.328125q0.265625 -0.140625 0.4375 -0.390625q0.1875 -0.25 0.28125 -0.765625q0.109375 -0.53125 0.109375 -1.59375l0 -4.09375q0 -1.09375 -0.0625 -1.984375q-0.0625 -0.890625 -0.21875 -1.453125q-0.140625 -0.578125 -0.359375 -0.890625q-0.203125 -0.328125 -0.5 -0.546875q-0.28125 -0.234375 -0.65625 -0.359375q-0.375 -0.140625 -0.984375 -0.140625q-0.609375 0 -1.15625 0.25q-0.546875 0.234375 -1.203125 0.828125q-0.65625 0.59375 -0.953125 1.171875q-0.296875 0.578125 -0.296875 1.328125l0 5.828125q0 1.34375 0.125 1.875q0.125 0.515625 0.46875 0.796875q0.359375 0.265625 1.15625 0.46875l0 0.765625l-6.125 0l0 -0.765625q0.609375 -0.1875 0.859375 -0.328125q0.265625 -0.140625 0.4375 -0.390625q0.1875 -0.25 0.28125 -0.765625q0.109375 -0.515625 0.109375 -1.609375l0 -6.8125q0 -1.0 -0.03125 -1.609375q-0.03125 -0.609375 -0.21875 -0.96875q-0.1875 -0.375 -0.578125 -0.546875q-0.375 -0.1875 -1.078125 -0.3125l0 -0.828125l3.65625 -0.140625l0.953125 0l-0.171875 2.546875l0.21875 0.0625q1.15625 -1.171875 1.859375 -1.671875q0.71875 -0.5 1.4375 -0.765625q0.734375 -0.28125 1.546875 -0.28125q0.84375 0 1.5 0.203125q0.671875 0.1875 1.171875 0.59375q0.515625 0.40625 0.84375 1.015625q0.328125 0.59375 0.484375 1.4375q0.171875 0.84375 0.171875 2.140625l0 5.890625q0 1.078125 0.0625 1.5625q0.0625 0.484375 0.21875 0.75q0.15625 0.265625 0.453125 0.453125q0.296875 0.171875 1.03125 0.375l0 0.765625zm11.671875 -2.234375l-0.234375 -0.0625q-1.359375 1.390625 -2.5625 1.96875q-1.1875 0.578125 -2.53125 0.578125q-1.1875 0 -2.09375 -0.453125q-0.90625 -0.46875 -1.390625 -1.296875q-0.484375 -0.84375 -0.484375 -1.9375q0 -2.28125 2.25 -3.515625q2.265625 -1.25 6.78125 -1.453125l0 -1.015625q0 -1.625 -0.3125 -2.5625q-0.3125 -0.9375 -0.984375 -1.375q-0.671875 -0.4375 -1.796875 -0.4375q-1.21875 0 -1.96875 0.640625q-0.734375 0.640625 -1.109375 1.921875l-2.046875 0l0 -2.03125q1.5 -0.78125 2.5 -1.140625q1.0 -0.375 2.0 -0.578125q1.0 -0.21875 2.03125 -0.21875q1.546875 0 2.484375 0.5q0.9375 0.484375 1.40625 1.5q0.46875 1.015625 0.46875 3.0625l0 5.4375q0 1.15625 0.015625 1.640625q0.015625 0.46875 0.09375 0.875q0.078125 0.40625 0.234375 0.65625q0.15625 0.234375 0.453125 0.40625q0.3125 0.171875 1.0 0.359375l0 0.765625l-4.28125 0l0.078125 -2.234375zm-0.265625 -4.890625q-3.171875 0.03125 -4.75 0.84375q-1.578125 0.8125 -1.578125 2.453125q0 0.890625 0.359375 1.40625q0.359375 0.515625 0.90625 0.71875q0.546875 0.1875 1.296875 0.1875q1.0625 0 1.921875 -0.515625q0.875 -0.515625 1.359375 -1.3125q0.484375 -0.796875 0.484375 -1.578125l0 -2.203125zm5.921875 -7.03125q0.78125 -0.125 1.265625 -0.4375q0.484375 -0.3125 0.75 -0.796875q0.28125 -0.5 0.4375 -1.234375q0.15625 -0.75 0.328125 -2.171875l2.21875 0l0 3.859375l5.046875 0l0 1.578125l-5.046875 0l0 6.953125q0 1.515625 0.125 2.421875q0.125 0.890625 0.46875 1.40625q0.34375 0.5 0.78125 0.71875q0.4375 0.21875 1.125 0.21875q0.625 0 1.171875 -0.25q0.546875 -0.265625 1.078125 -0.75l0.703125 0.84375q-1.109375 1.078125 -2.109375 1.5625q-0.984375 0.484375 -2.046875 0.484375q-2.015625 0 -3.0 -1.1875q-0.984375 -1.203125 -0.984375 -3.75l0 -8.671875l-2.3125 0l0 -0.796875zm23.96875 11.5q-1.0 1.046875 -1.84375 1.640625q-0.828125 0.59375 -1.828125 0.9375q-1.0 0.328125 -2.203125 0.328125q-3.21875 0 -4.859375 -1.921875q-1.640625 -1.9375 -1.640625 -5.703125q0 -2.328125 0.828125 -4.109375q0.84375 -1.78125 2.390625 -2.75q1.546875 -0.96875 3.5625 -0.96875q1.578125 0 2.6875 0.5q1.109375 0.5 1.765625 1.375q0.671875 0.859375 1.03125 2.1875q0.375 1.3125 0.421875 3.4375l-9.84375 0l0 0.28125q0 1.84375 0.40625 3.109375q0.421875 1.25 1.359375 1.96875q0.953125 0.703125 2.46875 0.703125q1.28125 0 2.296875 -0.46875q1.03125 -0.484375 2.046875 -1.5625l0.953125 1.015625zm-2.625 -6.34375q-0.09375 -1.6875 -0.421875 -2.75q-0.328125 -1.078125 -0.984375 -1.640625q-0.65625 -0.578125 -1.71875 -0.578125q-1.609375 0 -2.578125 1.296875q-0.953125 1.28125 -1.125 3.671875l6.828125 0z" fill-rule="nonzero"/><path fill="#000000" fill-opacity="0.0" d="m91.49344 265.08398l-86.99213 86.677185" fill-rule="evenodd"/><path stroke="#990000" stroke-width="4.0" stroke-linejoin="round" stroke-linecap="butt" d="m91.49344 265.08398l-69.990814 69.73743" fill-rule="evenodd"/><path fill="#990000" stroke="#990000" stroke-width="4.0" stroke-linecap="butt" d="m16.839298 330.1411l-8.19561 17.492676l17.52226 -8.132111z" fill-rule="evenodd"/><path fill="#000000" fill-opacity="0.0" d="m226.13911 265.41733l120.09447 0.03149414" fill-rule="evenodd"/><path stroke="#000000" stroke-width="4.0" stroke-linejoin="round" stroke-linecap="butt" stroke-dasharray="16.0,12.0" d="m226.13911 265.41733l120.09447 0.03149414" fill-rule="evenodd"/><path fill="#000000" fill-opacity="0.0" d="m277.57742 265.28348l172.09448 0l0 96.944855l-172.09448 0z" fill-rule="evenodd"/><path fill="#000000" d="m293.21805 301.05035q0 0.921875 0.09375 1.46875q0.109375 0.546875 0.3125 0.875q0.21875 0.3125 0.578125 0.5q0.359375 0.171875 1.125 0.34375l0 0.765625l-6.859375 0l0 -0.765625q0.96875 -0.25 1.296875 -0.546875q0.328125 -0.3125 0.421875 -0.875q0.109375 -0.5625 0.109375 -1.71875l0 -13.515625q0 -1.078125 -0.078125 -1.5625q-0.078125 -0.5 -0.265625 -0.765625q-0.171875 -0.28125 -0.46875 -0.4375q-0.296875 -0.171875 -1.015625 -0.375l0 -0.765625l7.75 0q3.65625 0 5.4375 1.40625q1.796875 1.390625 1.796875 4.25q0 1.625 -0.5625 2.921875q-0.5625 1.296875 -1.59375 2.125q-1.03125 0.828125 -2.4375 1.1875q-1.40625 0.359375 -2.953125 0.359375q-1.734375 0 -2.6875 -0.0625l0 5.1875zm0 -6.484375l1.8125 0q1.765625 0 2.90625 -0.453125q1.15625 -0.46875 1.765625 -1.53125q0.609375 -1.078125 0.609375 -2.84375q0 -1.34375 -0.359375 -2.234375q-0.359375 -0.90625 -1.0 -1.453125q-0.625 -0.546875 -1.5 -0.765625q-0.875 -0.234375 -1.90625 -0.234375q-1.546875 0 -2.328125 0.0625l0 9.453125zm17.265625 -1.90625l0.21875 0.046875q0.859375 -1.046875 1.59375 -1.640625q0.734375 -0.609375 1.578125 -0.9375q0.859375 -0.328125 1.9375 -0.328125q0.90625 0 1.640625 0.09375l0 3.59375l-1.765625 0q-0.375 -0.84375 -0.796875 -1.21875q-0.421875 -0.390625 -1.15625 -0.390625q-0.5625 0 -1.125 0.328125q-0.546875 0.328125 -1.0625 0.953125q-0.515625 0.625 -0.71875 1.171875q-0.1875 0.546875 -0.1875 1.296875l0 5.46875q0 1.421875 0.171875 1.96875q0.171875 0.53125 0.5625 0.78125q0.40625 0.25 1.203125 0.390625l0 0.765625l-6.296875 0l0 -0.765625q0.59375 -0.1875 0.84375 -0.328125q0.265625 -0.140625 0.453125 -0.390625q0.1875 -0.25 0.28125 -0.765625q0.09375 -0.515625 0.09375 -1.609375l0 -6.8125q0 -1.0 -0.03125 -1.609375q-0.03125 -0.609375 -0.21875 -0.96875q-0.1875 -0.375 -0.578125 -0.546875q-0.375 -0.1875 -1.078125 -0.3125l0 -0.8125l3.65625 -0.15625l0.953125 0l-0.171875 2.734375zm13.484375 -8.71875l0 3.03125l-2.875 0l0 -3.03125l2.875 0zm-4.46875 20.296875q0.609375 -0.1875 0.859375 -0.328125q0.265625 -0.140625 0.4375 -0.390625q0.1875 -0.25 0.28125 -0.765625q0.109375 -0.515625 0.109375 -1.609375l0 -6.8125q0 -1.0 -0.03125 -1.609375q-0.03125 -0.609375 -0.21875 -0.96875q-0.1875 -0.375 -0.578125 -0.546875q-0.375 -0.1875 -1.078125 -0.3125l0 -0.828125l3.640625 -0.140625l0.953125 0l0 11.171875q0 1.34375 0.125 1.875q0.125 0.515625 0.46875 0.796875q0.359375 0.265625 1.15625 0.46875l0 0.765625l-6.125 0l0 -0.765625zm24.109375 0.765625l-6.15625 0l0 -0.765625q0.609375 -0.1875 0.875 -0.328125q0.265625 -0.140625 0.4375 -0.390625q0.1875 -0.25 0.28125 -0.765625q0.109375 -0.53125 0.109375 -1.59375l0 -4.09375q0 -1.09375 -0.0625 -1.984375q-0.0625 -0.890625 -0.21875 -1.453125q-0.140625 -0.578125 -0.359375 -0.890625q-0.203125 -0.328125 -0.5 -0.546875q-0.28125 -0.234375 -0.65625 -0.359375q-0.375 -0.140625 -0.984375 -0.140625q-0.609375 0 -1.15625 0.25q-0.546875 0.234375 -1.203125 0.828125q-0.65625 0.59375 -0.953125 1.171875q-0.296875 0.578125 -0.296875 1.328125l0 5.828125q0 1.34375 0.125 1.875q0.125 0.515625 0.46875 0.796875q0.359375 0.265625 1.15625 0.46875l0 0.765625l-6.125 0l0 -0.765625q0.609375 -0.1875 0.859375 -0.328125q0.265625 -0.140625 0.4375 -0.390625q0.1875 -0.25 0.28125 -0.765625q0.109375 -0.515625 0.109375 -1.609375l0 -6.8125q0 -1.0 -0.03125 -1.609375q-0.03125 -0.609375 -0.21875 -0.96875q-0.1875 -0.375 -0.578125 -0.546875q-0.375 -0.1875 -1.078125 -0.3125l0 -0.828125l3.65625 -0.140625l0.953125 0l-0.171875 2.546875l0.21875 0.0625q1.15625 -1.171875 1.859375 -1.671875q0.71875 -0.5 1.4375 -0.765625q0.734375 -0.28125 1.546875 -0.28125q0.84375 0 1.5 0.203125q0.671875 0.1875 1.171875 0.59375q0.515625 0.40625 0.84375 1.015625q0.328125 0.59375 0.484375 1.4375q0.171875 0.84375 0.171875 2.140625l0 5.890625q0 1.078125 0.0625 1.5625q0.0625 0.484375 0.21875 0.75q0.15625 0.265625 0.453125 0.453125q0.296875 0.171875 1.03125 0.375l0 0.765625zm14.28125 -14.578125l0 3.265625l-1.984375 0q-0.265625 -1.015625 -0.65625 -1.59375q-0.390625 -0.59375 -0.90625 -0.828125q-0.515625 -0.234375 -1.28125 -0.234375q-1.09375 0 -1.9375 0.703125q-0.84375 0.703125 -1.34375 2.140625q-0.484375 1.4375 -0.484375 3.515625q0 1.328125 0.1875 2.4375q0.1875 1.09375 0.640625 1.875q0.453125 0.78125 1.203125 1.21875q0.75 0.4375 1.859375 0.4375q1.078125 0 2.0 -0.421875q0.9375 -0.421875 1.9375 -1.484375l0.890625 1.03125q-0.796875 0.875 -1.40625 1.359375q-0.609375 0.46875 -1.3125 0.796875q-0.6875 0.3125 -1.375 0.453125q-0.671875 0.15625 -1.46875 0.15625q-2.953125 0 -4.515625 -1.953125q-1.5625 -1.96875 -1.5625 -5.671875q0 -2.3125 0.875 -4.09375q0.875 -1.796875 2.453125 -2.765625q1.578125 -0.96875 3.640625 -0.96875q1.28125 0 2.359375 0.15625q1.09375 0.140625 2.1875 0.46875zm6.9375 -6.484375l0 3.03125l-2.875 0l0 -3.03125l2.875 0zm-4.46875 20.296875q0.609375 -0.1875 0.859375 -0.328125q0.265625 -0.140625 0.4375 -0.390625q0.1875 -0.25 0.28125 -0.765625q0.109375 -0.515625 0.109375 -1.609375l0 -6.8125q0 -1.0 -0.03125 -1.609375q-0.03125 -0.609375 -0.21875 -0.96875q-0.1875 -0.375 -0.578125 -0.546875q-0.375 -0.1875 -1.078125 -0.3125l0 -0.828125l3.640625 -0.140625l0.953125 0l0 11.171875q0 1.34375 0.125 1.875q0.125 0.515625 0.46875 0.796875q0.359375 0.265625 1.15625 0.46875l0 0.765625l-6.125 0l0 -0.765625zm13.125 0.296875l0 3.296875q0 1.015625 0.0625 1.515625q0.078125 0.5 0.25 0.78125q0.1875 0.296875 0.515625 0.484375q0.34375 0.1875 1.09375 0.34375l0 0.765625l-6.375 0l0 -0.765625q0.5625 -0.15625 0.90625 -0.328125q0.359375 -0.15625 0.546875 -0.484375q0.1875 -0.3125 0.25 -0.859375q0.0625 -0.546875 0.0625 -1.453125l0 -13.40625q0 -1.125 -0.03125 -1.59375q-0.03125 -0.484375 -0.125 -0.796875q-0.09375 -0.3125 -0.28125 -0.515625q-0.171875 -0.203125 -0.484375 -0.34375q-0.296875 -0.140625 -1.0 -0.28125l0 -0.828125l3.671875 -0.140625l0.953125 0l-0.203125 2.546875l0.234375 0.0625q0.96875 -0.984375 1.53125 -1.421875q0.5625 -0.453125 1.15625 -0.75q0.609375 -0.296875 1.15625 -0.421875q0.5625 -0.125 1.1875 -0.125q2.578125 0 3.953125 1.9375q1.390625 1.921875 1.390625 5.640625q0 2.578125 -0.78125 4.34375q-0.78125 1.75 -2.28125 2.640625q-1.484375 0.875 -3.546875 0.875q-1.15625 0 -2.09375 -0.203125q-0.9375 -0.1875 -1.71875 -0.515625zm0 -5.15625q0 1.5 0.1875 2.3125q0.1875 0.8125 0.65625 1.328125q0.484375 0.5 1.125 0.75q0.65625 0.25 1.71875 0.25q1.890625 0 2.84375 -1.5625q0.953125 -1.578125 0.953125 -4.640625q0 -6.125 -3.578125 -6.125q-0.875 0 -1.515625 0.28125q-0.625 0.265625 -1.25 0.875q-0.625 0.609375 -0.890625 1.1875q-0.25 0.5625 -0.25 1.21875l0 4.125zm17.734375 1.71875q0 1.34375 0.125 1.875q0.125 0.515625 0.46875 0.796875q0.359375 0.265625 1.15625 0.46875l0 0.765625l-6.203125 0l0 -0.765625q0.78125 -0.203125 1.078125 -0.421875q0.3125 -0.21875 0.4375 -0.515625q0.140625 -0.3125 0.1875 -0.828125q0.0625 -0.53125 0.0625 -1.375l0 -13.078125q0 -1.5 -0.03125 -2.09375q-0.015625 -0.59375 -0.125 -1.0q-0.09375 -0.421875 -0.28125 -0.65625q-0.171875 -0.234375 -0.484375 -0.375q-0.296875 -0.140625 -1.09375 -0.28125l0 -0.8125l3.765625 -0.15625l0.9375 0l0 18.453125zm17.0 1.25q-1.0 1.046875 -1.84375 1.640625q-0.828125 0.59375 -1.828125 0.9375q-1.0 0.328125 -2.203125 0.328125q-3.21875 0 -4.859375 -1.921875q-1.640625 -1.9375 -1.640625 -5.703125q0 -2.328125 0.828125 -4.109375q0.84375 -1.78125 2.390625 -2.75q1.546875 -0.96875 3.5625 -0.96875q1.578125 0 2.6875 0.5q1.109375 0.5 1.765625 1.375q0.671875 0.859375 1.03125 2.1875q0.375 1.3125 0.421875 3.4375l-9.84375 0l0 0.28125q0 1.84375 0.40625 3.109375q0.421875 1.25 1.359375 1.96875q0.953125 0.703125 2.46875 0.703125q1.28125 0 2.296875 -0.46875q1.03125 -0.484375 2.046875 -1.5625l0.953125 1.015625zm-2.625 -6.34375q-0.09375 -1.6875 -0.421875 -2.75q-0.328125 -1.078125 -0.984375 -1.640625q-0.65625 -0.578125 -1.71875 -0.578125q-1.609375 0 -2.578125 1.296875q-0.953125 1.28125 -1.125 3.671875l6.828125 0z" fill-rule="nonzero"/><path fill="#000000" d="m293.21805 339.45035q0 0.921875 0.09375 1.46875q0.109375 0.546875 0.3125 0.875q0.21875 0.3125 0.578125 0.5q0.359375 0.171875 1.125 0.34375l0 0.765625l-6.859375 0l0 -0.765625q0.96875 -0.25 1.296875 -0.546875q0.328125 -0.3125 0.421875 -0.875q0.109375 -0.5625 0.109375 -1.71875l0 -13.515625q0 -1.078125 -0.078125 -1.5625q-0.078125 -0.5 -0.265625 -0.765625q-0.171875 -0.28125 -0.46875 -0.4375q-0.296875 -0.171875 -1.015625 -0.375l0 -0.765625l7.75 0q3.65625 0 5.4375 1.40625q1.796875 1.390625 1.796875 4.25q0 1.625 -0.5625 2.921875q-0.5625 1.296875 -1.59375 2.125q-1.03125 0.828125 -2.4375 1.1875q-1.40625 0.359375 -2.953125 0.359375q-1.734375 0 -2.6875 -0.0625l0 5.1875zm0 -6.484375l1.8125 0q1.765625 0 2.90625 -0.453125q1.15625 -0.46875 1.765625 -1.53125q0.609375 -1.078125 0.609375 -2.84375q0 -1.34375 -0.359375 -2.234375q-0.359375 -0.90625 -1.0 -1.453125q-0.625 -0.546875 -1.5 -0.765625q-0.875 -0.234375 -1.90625 -0.234375q-1.546875 0 -2.328125 0.0625l0 9.453125zm19.25 10.6875q-3.25 0 -4.96875 -1.90625q-1.703125 -1.921875 -1.703125 -5.671875q0 -2.578125 0.890625 -4.359375q0.90625 -1.78125 2.46875 -2.640625q1.5625 -0.875 3.5625 -0.875q3.34375 0 5.0625 1.953125q1.71875 1.9375 1.71875 5.578125q0 2.59375 -0.859375 4.375q-0.859375 1.78125 -2.4375 2.671875q-1.578125 0.875 -3.734375 0.875zm-3.71875 -7.90625q0 3.21875 1.015625 4.953125q1.03125 1.71875 2.9375 1.71875q1.046875 0 1.78125 -0.5q0.734375 -0.515625 1.1875 -1.375q0.46875 -0.859375 0.671875 -1.984375q0.203125 -1.140625 0.203125 -2.375q0 -2.296875 -0.515625 -3.8125q-0.5 -1.515625 -1.375 -2.21875q-0.875 -0.71875 -2.0 -0.71875q-1.890625 0 -2.90625 1.640625q-1.0 1.640625 -1.0 4.671875zm18.375 -13.40625l0 3.03125l-2.875 0l0 -3.03125l2.875 0zm-4.46875 20.296875q0.609375 -0.1875 0.859375 -0.328125q0.265625 -0.140625 0.4375 -0.390625q0.1875 -0.25 0.28125 -0.765625q0.109375 -0.515625 0.109375 -1.609375l0 -6.8125q0 -1.0 -0.03125 -1.609375q-0.03125 -0.609375 -0.21875 -0.96875q-0.1875 -0.375 -0.578125 -0.546875q-0.375 -0.1875 -1.078125 -0.3125l0 -0.828125l3.640625 -0.140625l0.953125 0l0 11.171875q0 1.34375 0.125 1.875q0.125 0.515625 0.46875 0.796875q0.359375 0.265625 1.15625 0.46875l0 0.765625l-6.125 0l0 -0.765625zm24.109375 0.765625l-6.15625 0l0 -0.765625q0.609375 -0.1875 0.875 -0.328125q0.265625 -0.140625 0.4375 -0.390625q0.1875 -0.25 0.28125 -0.765625q0.109375 -0.53125 0.109375 -1.59375l0 -4.09375q0 -1.09375 -0.0625 -1.984375q-0.0625 -0.890625 -0.21875 -1.453125q-0.140625 -0.578125 -0.359375 -0.890625q-0.203125 -0.328125 -0.5 -0.546875q-0.28125 -0.234375 -0.65625 -0.359375q-0.375 -0.140625 -0.984375 -0.140625q-0.609375 0 -1.15625 0.25q-0.546875 0.234375 -1.203125 0.828125q-0.65625 0.59375 -0.953125 1.171875q-0.296875 0.578125 -0.296875 1.328125l0 5.828125q0 1.34375 0.125 1.875q0.125 0.515625 0.46875 0.796875q0.359375 0.265625 1.15625 0.46875l0 0.765625l-6.125 0l0 -0.765625q0.609375 -0.1875 0.859375 -0.328125q0.265625 -0.140625 0.4375 -0.390625q0.1875 -0.25 0.28125 -0.765625q0.109375 -0.515625 0.109375 -1.609375l0 -6.8125q0 -1.0 -0.03125 -1.609375q-0.03125 -0.609375 -0.21875 -0.96875q-0.1875 -0.375 -0.578125 -0.546875q-0.375 -0.1875 -1.078125 -0.3125l0 -0.828125l3.65625 -0.140625l0.953125 0l-0.171875 2.546875l0.21875 0.0625q1.15625 -1.171875 1.859375 -1.671875q0.71875 -0.5 1.4375 -0.765625q0.734375 -0.28125 1.546875 -0.28125q0.84375 0 1.5 0.203125q0.671875 0.1875 1.171875 0.59375q0.515625 0.40625 0.84375 1.015625q0.328125 0.59375 0.484375 1.4375q0.171875 0.84375 0.171875 2.140625l0 5.890625q0 1.078125 0.0625 1.5625q0.0625 0.484375 0.21875 0.75q0.15625 0.265625 0.453125 0.453125q0.296875 0.171875 1.03125 0.375l0 0.765625zm1.703125 -14.15625q0.78125 -0.125 1.265625 -0.4375q0.484375 -0.3125 0.75 -0.796875q0.28125 -0.5 0.4375 -1.234375q0.15625 -0.75 0.328125 -2.171875l2.21875 0l0 3.859375l5.046875 0l0 1.578125l-5.046875 0l0 6.953125q0 1.515625 0.125 2.421875q0.125 0.890625 0.46875 1.40625q0.34375 0.5 0.78125 0.71875q0.4375 0.21875 1.125 0.21875q0.625 0 1.171875 -0.25q0.546875 -0.265625 1.078125 -0.75l0.703125 0.84375q-1.109375 1.078125 -2.109375 1.5625q-0.984375 0.484375 -2.046875 0.484375q-2.015625 0 -3.0 -1.1875q-0.984375 -1.203125 -0.984375 -3.75l0 -8.671875l-2.3125 0l0 -0.796875z" fill-rule="nonzero"/><path fill="#000000" fill-opacity="0.0" d="m26.580053 170.73792l129.82678 0l0 96.944885l-129.82678 0z" fill-rule="evenodd"/><path fill="#000000" d="m51.8613 189.58292l0 4.328125l-1.546875 0q-0.375 -1.359375 -0.953125 -2.15625q-0.578125 -0.8125 -1.34375 -1.15625q-0.765625 -0.34375 -1.84375 -0.34375q-1.609375 0 -2.875 1.078125q-1.25 1.0625 -1.96875 3.21875q-0.71875 2.140625 -0.71875 5.1875q0 3.0625 0.59375 5.234375q0.59375 2.15625 1.75 3.265625q1.15625 1.09375 2.84375 1.09375q1.28125 0 2.09375 -0.359375q0.8125 -0.375 1.359375 -1.171875q0.5625 -0.796875 1.0625 -2.34375l1.546875 0l0 4.46875q-1.46875 0.390625 -3.015625 0.578125q-1.53125 0.203125 -3.375 0.203125q-3.96875 0 -6.0 -2.6875q-2.03125 -2.6875 -2.03125 -8.015625q0 -3.34375 1.046875 -5.859375q1.0625 -2.515625 3.109375 -3.890625q2.046875 -1.375 4.890625 -1.375q1.421875 0 2.625 0.15625q1.203125 0.140625 2.75 0.546875zm12.265629 18.640625l-0.23437881 -0.0625q-1.359375 1.390625 -2.5625 1.96875q-1.1875 0.578125 -2.53125 0.578125q-1.1875 0 -2.09375 -0.453125q-0.90625 -0.46875 -1.390625 -1.296875q-0.484375 -0.84375 -0.484375 -1.9375q0 -2.28125 2.25 -3.515625q2.265625 -1.25 6.78125 -1.453125l0 -1.015625q0 -1.625 -0.3125 -2.5625q-0.3125 -0.9375 -0.984375 -1.375q-0.671875 -0.4375 -1.796875 -0.4375q-1.21875 0 -1.96875 0.640625q-0.734375 0.640625 -1.109375 1.921875l-2.046875 0l0 -2.03125q1.5 -0.78125 2.5 -1.140625q1.0 -0.375 2.0 -0.578125q1.0 -0.21875 2.03125 -0.21875q1.546875 0 2.4843788 0.5q0.9375 0.484375 1.40625 1.5q0.46875 1.015625 0.46875 3.0625l0 5.4375q0 1.15625 0.015625 1.640625q0.015625 0.46875 0.09375 0.875q0.078125 0.40625 0.234375 0.65625q0.15625 0.234375 0.453125 0.40625q0.3125 0.171875 1.0 0.359375l0 0.765625l-4.28125 0l0.078125 -2.234375zm-0.2656288 -4.890625q-3.171875 0.03125 -4.75 0.84375q-1.578125 0.8125 -1.578125 2.453125q0 0.890625 0.359375 1.40625q0.359375 0.515625 0.90625 0.71875q0.546875 0.1875 1.296875 0.1875q1.0625 0 1.921875 -0.515625q0.875 -0.515625 1.359375 -1.3125q0.484375 -0.796875 0.484375 -1.578125l0 -2.203125zm11.078129 -5.40625l0.21875 0.0625q0.9375 -0.9375 1.53125 -1.40625q0.609375 -0.484375 1.171875 -0.765625q0.5625 -0.296875 1.046875 -0.421875q0.5 -0.125 1.015625 -0.125q1.5625 0 2.546875 0.71875q0.984375 0.71875 1.359375 2.203125q1.171875 -1.1875 1.890625 -1.75q0.734375 -0.5625 1.484375 -0.859375q0.765625 -0.3125 1.640625 -0.3125q1.046875 0 1.796875 0.3125q0.765625 0.296875 1.28125 0.9375q0.53125 0.625 0.765625 1.578125q0.25 0.953125 0.25 2.5625l0 5.890625q0 1.1875 0.078125 1.640625q0.078125 0.453125 0.21875 0.703125q0.15625 0.25 0.453125 0.4375q0.296875 0.171875 1.0 0.359375l0 0.765625l-6.140625 0l0 -0.765625q0.609375 -0.1875 0.875 -0.328125q0.265625 -0.140625 0.4375 -0.390625q0.1875 -0.25 0.28125 -0.765625q0.109375 -0.53125 0.109375 -1.59375l0 -4.09375q0 -1.328125 -0.078125 -2.1875q-0.0625 -0.875 -0.21875 -1.390625q-0.140625 -0.515625 -0.359375 -0.8125q-0.203125 -0.296875 -0.46875 -0.515625q-0.265625 -0.21875 -0.625 -0.34375q-0.359375 -0.125 -0.953125 -0.125q-0.625 0 -1.171875 0.25q-0.53125 0.25 -1.171875 0.84375q-0.625 0.59375 -0.90625 1.203125q-0.28125 0.59375 -0.28125 1.40625l0 5.703125q0 1.1875 0.078125 1.640625q0.078125 0.453125 0.21875 0.703125q0.15625 0.25 0.453125 0.4375q0.296875 0.171875 1.0 0.359375l0 0.765625l-6.140625 0l0 -0.765625q0.609375 -0.1875 0.875 -0.328125q0.265625 -0.140625 0.4375 -0.390625q0.1875 -0.25 0.28125 -0.765625q0.109375 -0.53125 0.109375 -1.59375l0 -4.09375q0 -1.390625 -0.078125 -2.265625q-0.078125 -0.875 -0.25 -1.40625q-0.15625 -0.53125 -0.421875 -0.859375q-0.25 -0.328125 -0.515625 -0.5q-0.265625 -0.171875 -0.625 -0.25q-0.359375 -0.09375 -0.8125 -0.09375q-0.640625 0 -1.203125 0.296875q-0.5625 0.28125 -1.15625 0.828125q-0.578125 0.546875 -0.875 1.140625q-0.296875 0.59375 -0.296875 1.28125l0 5.859375q0 0.890625 0.046875 1.359375q0.046875 0.46875 0.140625 0.734375q0.109375 0.265625 0.265625 0.4375q0.15625 0.15625 0.4375 0.3125q0.296875 0.140625 0.875 0.296875l0 0.765625l-6.125 0l0 -0.765625q0.59375 -0.1875 0.84375 -0.328125q0.265625 -0.140625 0.453125 -0.390625q0.1875 -0.25 0.28125 -0.765625q0.09375 -0.515625 0.09375 -1.609375l0 -6.8125q0 -1.0 -0.03125 -1.609375q-0.03125 -0.609375 -0.21875 -0.96875q-0.1875 -0.375 -0.578125 -0.546875q-0.375 -0.1875 -1.078125 -0.3125l0 -0.828125l3.65625 -0.140625l0.953125 0l-0.171875 2.546875zm34.890625 9.875q-1.0 1.046875 -1.84375 1.640625q-0.828125 0.59375 -1.828125 0.9375q-1.0 0.328125 -2.203125 0.328125q-3.21875 0 -4.859375 -1.921875q-1.640625 -1.9375 -1.640625 -5.703125q0 -2.328125 0.828125 -4.109375q0.84375 -1.78125 2.390625 -2.75q1.546875 -0.96875 3.5625 -0.96875q1.578125 0 2.6875 0.5q1.109375 0.5 1.765625 1.375q0.671875 0.859375 1.03125 2.1875q0.375 1.3125 0.421875 3.4375l-9.84375 0l0 0.28125q0 1.84375 0.40625 3.109375q0.421875 1.25 1.359375 1.96875q0.953125 0.703125 2.46875 0.703125q1.28125 0 2.296875 -0.46875q1.03125 -0.484375 2.046875 -1.5625l0.953125 1.015625zm-2.625 -6.34375q-0.09375 -1.6875 -0.421875 -2.75q-0.328125 -1.078125 -0.984375 -1.640625q-0.65625 -0.578125 -1.71875 -0.578125q-1.609375 0 -2.578125 1.296875q-0.953125 1.28125 -1.125 3.671875l6.828125 0zm9.96875 -3.34375l0.21875 0.046875q0.859375 -1.046875 1.59375 -1.640625q0.734375 -0.609375 1.578125 -0.9375q0.859375 -0.328125 1.9375 -0.328125q0.90625 0 1.640625 0.09375l0 3.59375l-1.765625 0q-0.375 -0.84375 -0.796875 -1.21875q-0.421875 -0.390625 -1.15625 -0.390625q-0.5625 0 -1.125 0.328125q-0.546875 0.328125 -1.0625 0.953125q-0.515625 0.625 -0.71875 1.171875q-0.1875 0.546875 -0.1875 1.296875l0 5.46875q0 1.421875 0.171875 1.96875q0.171875 0.53125 0.5625 0.78125q0.40625 0.25 1.203125 0.390625l0 0.765625l-6.296875 0l0 -0.765625q0.59375 -0.1875 0.84375 -0.328125q0.265625 -0.140625 0.453125 -0.390625q0.1875 -0.25 0.28125 -0.765625q0.09375 -0.515625 0.09375 -1.609375l0 -6.8125q0 -1.0 -0.03125 -1.609375q-0.03125 -0.609375 -0.21875 -0.96875q-0.1875 -0.375 -0.578125 -0.546875q-0.375 -0.1875 -1.078125 -0.3125l0 -0.8125l3.65625 -0.15625l0.953125 0l-0.171875 2.734375zm17.499992 10.109375l-0.234375 -0.0625q-1.359375 1.390625 -2.5625 1.96875q-1.1875 0.578125 -2.53125 0.578125q-1.1875 0 -2.0937424 -0.453125q-0.90625 -0.46875 -1.390625 -1.296875q-0.484375 -0.84375 -0.484375 -1.9375q0 -2.28125 2.25 -3.515625q2.2656174 -1.25 6.7812424 -1.453125l0 -1.015625q0 -1.625 -0.3125 -2.5625q-0.3125 -0.9375 -0.984375 -1.375q-0.671875 -0.4375 -1.796875 -0.4375q-1.21875 0 -1.96875 0.640625q-0.734375 0.640625 -1.109375 1.921875l-2.0468674 0l0 -2.03125q1.5 -0.78125 2.4999924 -1.140625q1.0 -0.375 2.0 -0.578125q1.0 -0.21875 2.03125 -0.21875q1.546875 0 2.484375 0.5q0.9375 0.484375 1.40625 1.5q0.46875 1.015625 0.46875 3.0625l0 5.4375q0 1.15625 0.015625 1.640625q0.015625 0.46875 0.09375 0.875q0.078125 0.40625 0.234375 0.65625q0.15625 0.234375 0.453125 0.40625q0.3125 0.171875 1.0 0.359375l0 0.765625l-4.28125 0l0.078125 -2.234375zm-0.265625 -4.890625q-3.171875 0.03125 -4.75 0.84375q-1.578125 0.8125 -1.578125 2.453125q0 0.890625 0.359375 1.40625q0.359375 0.515625 0.90625 0.71875q0.546875 0.1875 1.296875 0.1875q1.0625 0 1.921875 -0.515625q0.875 -0.515625 1.359375 -1.3125q0.484375 -0.796875 0.484375 -1.578125l0 -2.203125z" fill-rule="nonzero"/><path fill="#000000" d="m51.8613 227.98291l0 4.328125l-1.546875 0q-0.375 -1.359375 -0.953125 -2.15625q-0.578125 -0.8125 -1.34375 -1.15625q-0.765625 -0.34375 -1.84375 -0.34375q-1.609375 0 -2.875 1.078125q-1.25 1.0625 -1.96875 3.21875q-0.71875 2.140625 -0.71875 5.1875q0 3.0625 0.59375 5.234375q0.59375 2.15625 1.75 3.265625q1.15625 1.09375 2.84375 1.09375q1.28125 0 2.09375 -0.359375q0.8125 -0.375 1.359375 -1.171875q0.5625 -0.796875 1.0625 -2.34375l1.546875 0l0 4.46875q-1.46875 0.390625 -3.015625 0.578125q-1.53125 0.203125 -3.375 0.203125q-3.96875 0 -6.0 -2.6875q-2.03125 -2.6875 -2.03125 -8.015625q0 -3.34375 1.046875 -5.859375q1.0625 -2.515625 3.109375 -3.890625q2.046875 -1.375 4.890625 -1.375q1.421875 0 2.625 0.15625q1.203125 0.140625 2.75 0.546875zm15.718754 18.21875q-1.0 1.046875 -1.84375 1.640625q-0.828125 0.59375 -1.8281288 0.9375q-1.0 0.328125 -2.203125 0.328125q-3.21875 0 -4.859375 -1.921875q-1.640625 -1.9375 -1.640625 -5.703125q0 -2.328125 0.828125 -4.109375q0.84375 -1.78125 2.390625 -2.75q1.546875 -0.96875 3.5625 -0.96875q1.578125 0 2.6875038 0.5q1.109375 0.5 1.765625 1.375q0.671875 0.859375 1.03125 2.1875q0.375 1.3125 0.421875 3.4375l-9.843754 0l0 0.28125q0 1.84375 0.40625 3.109375q0.421875 1.25 1.359375 1.96875q0.953125 0.703125 2.46875 0.703125q1.28125 0 2.2968788 -0.46875q1.03125 -0.484375 2.046875 -1.5625l0.953125 1.015625zm-2.625 -6.34375q-0.09375 -1.6875 -0.421875 -2.75q-0.328125 -1.078125 -0.9843788 -1.640625q-0.65625 -0.578125 -1.71875 -0.578125q-1.609375 0 -2.578125 1.296875q-0.953125 1.28125 -1.125 3.671875l6.828129 0zm20.96875 9.0l-6.15625 0l0 -0.765625q0.609375 -0.1875 0.875 -0.328125q0.265625 -0.140625 0.4375 -0.390625q0.1875 -0.25 0.28125 -0.765625q0.109375 -0.53125 0.109375 -1.59375l0 -4.09375q0 -1.09375 -0.0625 -1.984375q-0.0625 -0.890625 -0.21875 -1.453125q-0.140625 -0.578125 -0.359375 -0.890625q-0.203125 -0.328125 -0.5 -0.546875q-0.28125 -0.234375 -0.65625 -0.359375q-0.375 -0.140625 -0.984375 -0.140625q-0.609375 0 -1.15625 0.25q-0.546875 0.234375 -1.203125 0.828125q-0.65625 0.59375 -0.953125 1.171875q-0.296875 0.578125 -0.296875 1.328125l0 5.828125q0 1.34375 0.125 1.875q0.125 0.515625 0.46875 0.796875q0.359375 0.265625 1.15625 0.46875l0 0.765625l-6.125 0l0 -0.765625q0.609375 -0.1875 0.859375 -0.328125q0.265625 -0.140625 0.4375 -0.390625q0.1875 -0.25 0.28125 -0.765625q0.109375 -0.515625 0.109375 -1.609375l0 -6.8125q0 -1.0 -0.03125 -1.609375q-0.03125 -0.609375 -0.21875 -0.96875q-0.1875 -0.375 -0.578125 -0.546875q-0.375 -0.1875 -1.078125 -0.3125l0 -0.828125l3.65625 -0.140625l0.953125 0l-0.171875 2.546875l0.21875 0.0625q1.15625 -1.171875 1.859375 -1.671875q0.71875 -0.5 1.4375 -0.765625q0.734375 -0.28125 1.546875 -0.28125q0.84375 0 1.5 0.203125q0.671875 0.1875 1.171875 0.59375q0.515625 0.40625 0.84375 1.015625q0.328125 0.59375 0.484375 1.4375q0.171875 0.84375 0.171875 2.140625l0 5.890625q0 1.078125 0.0625 1.5625q0.0625 0.484375 0.21875 0.75q0.15625 0.265625 0.453125 0.453125q0.296875 0.171875 1.03125 0.375l0 0.765625zm1.703125 -14.15625q0.78125 -0.125 1.265625 -0.4375q0.484375 -0.3125 0.75 -0.796875q0.28125 -0.5 0.4375 -1.234375q0.15625 -0.75 0.328125 -2.171875l2.21875 0l0 3.859375l5.046875 0l0 1.578125l-5.046875 0l0 6.953125q0 1.515625 0.125 2.421875q0.125 0.890625 0.46875 1.40625q0.34375 0.5 0.78125 0.71875q0.4375 0.21875 1.125 0.21875q0.625 0 1.171875 -0.25q0.546875 -0.265625 1.078125 -0.75l0.703125 0.84375q-1.109375 1.078125 -2.109375 1.5625q-0.984375 0.484375 -2.046875 0.484375q-2.015625 0 -3.0 -1.1875q-0.984375 -1.203125 -0.984375 -3.75l0 -8.671875l-2.3125 0l0 -0.796875zm23.96875 11.5q-1.0 1.046875 -1.84375 1.640625q-0.828125 0.59375 -1.828125 0.9375q-1.0 0.328125 -2.203125 0.328125q-3.21875 0 -4.859375 -1.921875q-1.640625 -1.9375 -1.640625 -5.703125q0 -2.328125 0.828125 -4.109375q0.84375 -1.78125 2.390625 -2.75q1.546875 -0.96875 3.5625 -0.96875q1.578125 0 2.6875 0.5q1.109375 0.5 1.765625 1.375q0.671875 0.859375 1.03125 2.1875q0.375 1.3125 0.421875 3.4375l-9.84375 0l0 0.28125q0 1.84375 0.40625 3.109375q0.421875 1.25 1.359375 1.96875q0.953125 0.703125 2.46875 0.703125q1.28125 0 2.296875 -0.46875q1.03125 -0.484375 2.046875 -1.5625l0.953125 1.015625zm-2.625 -6.34375q-0.09375 -1.6875 -0.421875 -2.75q-0.328125 -1.078125 -0.984375 -1.640625q-0.65625 -0.578125 -1.71875 -0.578125q-1.609375 0 -2.578125 1.296875q-0.953125 1.28125 -1.125 3.671875l6.828125 0zm9.96875 -3.34375l0.21875 0.046875q0.859375 -1.046875 1.59375 -1.640625q0.734375 -0.609375 1.578125 -0.9375q0.859375 -0.328125 1.9375 -0.328125q0.90625 0 1.640625 0.09375l0 3.59375l-1.765625 0q-0.375 -0.84375 -0.796875 -1.21875q-0.421875 -0.390625 -1.15625 -0.390625q-0.5625 0 -1.125 0.328125q-0.546875 0.328125 -1.0625 0.953125q-0.515625 0.625 -0.71875 1.171875q-0.1875 0.546875 -0.1875 1.296875l0 5.46875q0 1.421875 0.171875 1.96875q0.171875 0.53125 0.5625 0.78125q0.40625 0.25 1.203125 0.390625l0 0.765625l-6.296875 0l0 -0.765625q0.59375 -0.1875 0.84375 -0.328125q0.265625 -0.140625 0.453125 -0.390625q0.1875 -0.25 0.28125 -0.765625q0.09375 -0.515625 0.09375 -1.609375l0 -6.8125q0 -1.0 -0.03125 -1.609375q-0.03125 -0.609375 -0.21875 -0.96875q-0.1875 -0.375 -0.578125 -0.546875q-0.375 -0.1875 -1.078125 -0.3125l0 -0.8125l3.65625 -0.15625l0.953125 0l-0.171875 2.734375z" fill-rule="nonzero"/></g></svg>